<?xml version="1.0" encoding="UTF-8"?>
<svg width="24px" height="24px" viewBox="0 0 24 24" version="1.1" xmlns="http://www.w3.org/2000/svg" xmlns:xlink="http://www.w3.org/1999/xlink">
    <title>xing</title>
    <g id="xing" stroke="none" stroke-width="1" fill="none" fill-rule="evenodd">
        <path d="M21.4816541,-2.13162821e-14 C21.6898658,-2.13162821e-14 21.8366394,0.0695263837 21.9220184,0.20883445 C22.0259939,0.357546023 22.0259939,0.528638795 21.9220184,0.72313396 L21.9220184,0.72313396 L14.4245724,13.711122 L14.4245724,13.7246528 L19.1953228,22.2766107 C19.2992983,22.4617449 19.3038171,22.6333483 19.209444,22.7914208 C19.1147668,22.9304736 18.9631703,23 18.755002,23 L18.755002,23 L15.3613947,23 C14.963872,23 14.6514241,22.7914208 14.4243117,22.3742625 L14.4243117,22.3742625 L9.61076318,13.7246528 C9.78121695,13.4285487 12.2946606,9.06183227 17.1510072,0.625780003 C17.3873745,0.208579151 17.6905241,-2.13162821e-14 18.0596306,-2.13162821e-14 L18.0596306,-2.13162821e-14 Z M7.21146229,4.53338402 C7.58986706,4.53338402 7.90231495,4.74200572 8.14854527,5.15916403 L8.14854527,5.15916403 L10.4771533,9.13578383 C10.3822153,9.30321732 9.16592358,11.4166662 6.82775664,15.4768964 C6.5721846,15.9036709 6.26425549,16.1166753 5.9047514,16.1166753 L5.9047514,16.1166753 L2.51088337,16.1166753 C2.31223064,16.1166753 2.16519634,16.0380858 2.07077981,15.8800132 C1.97640673,15.7229619 1.97640673,15.5562943 2.07077981,15.3797552 L2.07077981,15.3797552 L5.66330057,9.14986782 C5.67259884,9.14986782 5.67259884,9.14565539 5.66330057,9.13578383 L5.66330057,9.13578383 L3.37727345,5.25626268 C3.26369553,5.05261931 3.25891605,4.88101594 3.36315224,4.74196317 C3.44848776,4.60291041 3.59951944,4.53338402 3.81759426,4.53338402 L3.81759426,4.53338402 Z" fill="#000000" fill-rule="nonzero"></path>
    </g>
</svg>