<?xml version="1.0" encoding="UTF-8"?>
<svg width="20px" height="20px" viewBox="0 0 20 20" version="1.1" xmlns="http://www.w3.org/2000/svg" xmlns:xlink="http://www.w3.org/1999/xlink">
    <!-- Generator: Sketch 63.1 (92452) - https://sketch.com -->
    <title>icons/20x20/grey/search</title>
    <desc>Created with Sketch.</desc>
    <g id="icons/20x20/grey/search" stroke="none" stroke-width="1" fill="none" fill-rule="evenodd">
        <path d="M8,14 C4.692,14 2,11.309 2,8 C2,4.692 4.692,2 8,2 C11.308,2 14,4.692 14,8 C14,11.309 11.308,14 8,14 L8,14 Z M8,0 C3.582,0 0,3.582 0,8 C0,12.418 3.582,16 8,16 C12.418,16 16,12.418 16,8 C16,3.582 12.418,0 8,0 L8,0 Z" id="search" fill="#5B5A74"></path>
        <rect id="Rectangle" fill="#5B5A74" transform="translate(15.792893, 16.292893) rotate(45.000000) translate(-15.792893, -16.292893) " x="12.2928932" y="15.2928932" width="7" height="2"></rect>
    </g>
</svg>