<?xml version="1.0" encoding="UTF-8"?>
<svg width="72px" height="51px" viewBox="0 0 72 51" version="1.1" xmlns="http://www.w3.org/2000/svg" xmlns:xlink="http://www.w3.org/1999/xlink">
    <!-- Generator: sketchtool 64 (101010) - https://sketch.com -->
    <title>3CC9BE11-01E8-457B-A4B5-110328C67085</title>
    <desc>Created with sketchtool.</desc>
    <g id="Modules" stroke="none" stroke-width="1" fill="none" fill-rule="evenodd">
        <g id="article_elements" transform="translate(-100.000000, -356.000000)" fill="#FF574F" fill-rule="nonzero">
            <g id="blog-/-quote" transform="translate(100.000000, 356.000000)">
                <g id="quote">
                    <path d="M8.5026738,51 L25.6684492,26.4683544 C28.2352941,22.5949367 30,18.721519 30,13.8797468 C30,5.97151899 24.5454545,0 15.7219251,0 C7.05882353,0 0.962566845,5.81012658 0.962566845,14.0411392 C0.962566845,20.0126582 4.3315508,25.3386076 10.4278075,26.7911392 L0,45.9968354 L8.5026738,51 Z M50.5026738,51 L67.6684492,26.4683544 C70.2352941,22.5949367 72,18.721519 72,13.8797468 C72,5.97151899 66.5454545,0 57.7219251,0 C49.0588235,0 42.9625668,5.81012658 42.9625668,14.0411392 C42.9625668,20.0126582 46.3315508,25.3386076 52.4278075,26.7911392 L42,45.9968354 L50.5026738,51 Z"></path>
                </g>
            </g>
        </g>
    </g>
</svg>