<svg width="308" height="211" viewBox="0 0 308 211" fill="none" xmlns="http://www.w3.org/2000/svg">
<path fill-rule="evenodd" clip-rule="evenodd" d="M269.347 18.1604H38.9334C33.841 18.1604 28.9571 20.0051 25.3562 23.2886C21.7553 26.5721 19.7323 31.0255 19.7323 35.669V175.738C19.7323 180.381 21.7553 184.835 25.3562 188.118C28.9571 191.402 33.841 193.246 38.9334 193.246H269.347C274.439 193.246 279.323 191.402 282.924 188.118C286.525 184.835 288.548 180.381 288.548 175.738V35.669C288.548 31.0255 286.525 26.5721 282.924 23.2886C279.323 20.0051 274.439 18.1604 269.347 18.1604V18.1604ZM38.9334 0.651855C28.7485 0.651855 18.9808 4.34115 11.779 10.9082C4.57718 17.4751 0.53125 26.3819 0.53125 35.669L0.53125 175.738C0.53125 185.025 4.57718 193.932 11.779 200.499C18.9808 207.066 28.7485 210.755 38.9334 210.755H269.347C279.531 210.755 289.299 207.066 296.501 200.499C303.703 193.932 307.749 185.025 307.749 175.738V35.669C307.749 26.3819 303.703 17.4751 296.501 10.9082C289.299 4.34115 279.531 0.651855 269.347 0.651855H38.9334Z" fill="white"/>
<path d="M211.745 61.9345C211.745 59.6127 212.757 57.386 214.557 55.7443C216.358 54.1025 218.8 53.1802 221.346 53.1802H259.748C262.294 53.1802 264.736 54.1025 266.537 55.7443C268.337 57.386 269.349 59.6127 269.349 61.9345V79.4431C269.349 81.7649 268.337 83.9915 266.537 85.6333C264.736 87.275 262.294 88.1974 259.748 88.1974H221.346C218.8 88.1974 216.358 87.275 214.557 85.6333C212.757 83.9915 211.745 81.7649 211.745 79.4431V61.9345ZM19.7344 123.215H288.55V158.232H19.7344V123.215Z" fill="white"/>
</svg>
