<?xml version="1.0" encoding="UTF-8"?>
<svg width="16px" height="18px" viewBox="0 0 16 18" version="1.1" xmlns="http://www.w3.org/2000/svg" xmlns:xlink="http://www.w3.org/1999/xlink">
    <!-- Generator: sketchtool 64 (101010) - https://sketch.com -->
    <title>AEE565C5-BC42-4E34-8C67-27123C3D89AE</title>
    <desc>Created with sketchtool.</desc>
    <g id="Modules" stroke="none" stroke-width="1" fill="none" fill-rule="evenodd">
        <g id="icons" transform="translate(-710.000000, -368.000000)" fill="#2D2B62">
            <g id="Stacked-Group" transform="translate(108.000000, 367.000000)">
                <g id="icons/reset-copy" transform="translate(600.000000, 0.000000)">
                    <path d="M16.002921,11.8589419 C15.5241177,15.1679242 12.3250695,17.6129111 8.74458482,16.8639151 C6.4710222,16.3879176 4.62306246,14.5569274 4.14526299,12.2929396 C3.32918952,8.42196027 6.00727565,4.99997859 10.0223973,4.99997859 L10.0223973,6.99996788 L15.0412993,3.99998394 L10.0223973,1 L10.0223973,2.99998929 C5.00349524,2.99998929 1.16002005,7.4829653 2.15878156,12.6049379 C2.76707249,15.7239212 5.29459156,18.2379077 8.42538265,18.8439045 C13.1702526,19.7618996 17.3700699,16.5159169 17.9904062,12.1259404 C18.0747237,11.5299436 17.5919053,10.9999465 16.9886333,10.9999465 L16.9896371,10.9999465 C16.4907582,10.9999465 16.0741894,11.3669445 16.002921,11.8589419" id="reset"></path>
                </g>
            </g>
        </g>
    </g>
</svg>