<?xml version="1.0" encoding="UTF-8"?>
<svg width="18px" height="19px" viewBox="0 0 18 19" version="1.1" xmlns="http://www.w3.org/2000/svg" xmlns:xlink="http://www.w3.org/1999/xlink">
    <!-- Generator: Sketch 63.1 (92452) - https://sketch.com -->
    <title>Path</title>
    <desc>Created with Sketch.</desc>
    <g id="Symbols" stroke="none" stroke-width="1" fill="none" fill-rule="evenodd">
        <g id="modules/footer/footer_desktop" transform="translate(-120.000000, -231.000000)" fill="#232245">
            <path d="M136.93977,244.494453 C136.10576,244.045663 135.262149,243.533275 134.389738,243.176884 C132.704917,242.4893 132.818918,244.522052 131.614103,245.180837 C130.831693,245.610427 129.728879,244.834045 129.04607,244.403255 C127.853255,243.652073 126.796042,242.664496 125.916431,241.519722 C125.467625,240.935336 124.472813,239.836162 124.595214,239.016581 C124.789617,237.715811 126.329236,237.651013 125.888831,236.05985 C125.653628,235.20907 125.232422,234.370289 124.916818,233.548309 C124.493213,232.449134 124.320411,231.743551 123.086795,231.803549 C122.197584,231.847948 121.605976,232.228339 121.058769,232.941123 C119.579151,234.869478 119.802353,237.471017 120.797166,239.585368 C122.204784,242.580498 124.619214,245.401632 127.199247,247.225589 C128.953669,248.46636 131.264899,249.593134 133.388925,249.785129 C134.944145,249.924326 137.119773,249.083146 137.67658,247.394785 C137.636979,247.512382 137.599779,247.62638 137.581779,247.680378 C137.596179,247.638379 137.623779,247.553181 137.67658,247.394785 C137.69818,247.327587 137.71378,247.281988 137.72818,247.238789 C137.71258,247.285588 137.69578,247.337187 137.67778,247.391185 C138.167386,245.90322 138.226187,245.186837 136.93977,244.494453 L136.93977,244.494453 Z" id="Path"></path>
        </g>
    </g>
</svg>