<?xml version="1.0" encoding="UTF-8"?>
<svg width="24px" height="24px" viewBox="0 0 24 24" version="1.1" xmlns="http://www.w3.org/2000/svg" xmlns:xlink="http://www.w3.org/1999/xlink">
    <title>dislike</title>
    <g id="dislike" stroke="none" stroke-width="1" fill="none" fill-rule="evenodd">
        <path d="M5.72727053,21 L5.72727053,10.4 L2.99993038,10.4 L2.99993038,21 L5.72727053,21 Z M1,23 L1,8.4 L5.98115705,8.4 L7.62623231,2.69281114 C7.90823164,1.13203654 9.30228609,0 10.923961,0 C12.764939,0 14.2726524,1.45117483 14.2726524,3.26065 L14.2726524,8.4 L19.0141391,8.4 C21.5685243,8.4 23.4794157,10.7163127 22.8937533,13.1561673 L22.8852947,13.1889502 L20.9987931,20.0181338 C20.5766337,21.7751155 18.9661177,23 17.1192309,23 L6.36359953,23 L1,23 Z M19.0141391,10.4 L12.272722,10.4 L12.272722,3.26065 C12.272722,2.57322517 11.6771637,2 10.923961,2 C10.2489217,2 9.68718809,2.46363423 9.59001948,3.07357879 L9.56335025,3.19322849 L7.72720091,9.56330242 L7.72720091,21 L17.1192309,21 C18.0555338,21 18.851472,20.394646 19.0626181,19.5182998 L20.9525292,12.6746448 C21.2197899,11.5192465 20.2910563,10.4 19.0141391,10.4 Z" fill="#000000" fill-rule="nonzero" transform="translate(12.000000, 11.500000) scale(1, -1) translate(-12.000000, -11.500000) "></path>
    </g>
</svg>