<?xml version="1.0" encoding="utf-8"?>
<!-- Generator: Adobe Illustrator 24.2.3, SVG Export Plug-In . SVG Version: 6.00 Build 0)  -->
<svg version="1.1" id="Ebene_1" xmlns="http://www.w3.org/2000/svg" xmlns:xlink="http://www.w3.org/1999/xlink" x="0px" y="0px"
	 viewBox="0 0 30 40" style="enable-background:new 0 0 30 40;" xml:space="preserve">
<style type="text/css">
	.st0{fill:#D3D3DA;}
	.st1{fill-rule:evenodd;clip-rule:evenodd;fill:#D3D3DA;}
</style>
<desc>Created with Sketch.</desc>
<g id="icons_x2F_fileformats_x2F_grey_x2F_xls">
	<path id="XLS" class="st0" d="M5.9,35l1.5-2.5L8.9,35h1.7l-2.2-3.7l2.2-3.6H8.9l-1.5,2.5L6,27.7H4.3l2.2,3.6L4.2,35H5.9z M15.9,35
		v-1.3h-3v-6h-1.3V35H15.9z M19.2,35.1c1.6,0,2.6-0.9,2.6-2.2c0-1-0.5-1.7-1.8-2.1l-1-0.2c-0.6-0.1-1-0.4-1-0.9
		c0-0.5,0.4-0.9,1.1-0.9c0.7,0,1.2,0.4,1.2,1l1.3-0.3c-0.2-1.2-1.2-1.9-2.5-1.9c-1.4,0-2.5,0.9-2.5,2.2c0,1,0.6,1.7,2,2.1l1,0.2
		c0.5,0.1,0.8,0.4,0.8,0.8c0,0.6-0.5,0.9-1.2,0.9c-0.8,0-1.4-0.5-1.4-1.1l-1.3,0.2C16.6,34.2,17.6,35.1,19.2,35.1z"/>
	<rect id="Rectangle" x="5" y="15" class="st1" width="20" height="2"/>
	<rect id="Rectangle_1_" x="5" y="15" class="st1" width="2" height="10"/>
	<rect id="Rectangle_2_" x="14" y="15" class="st1" width="2" height="10"/>
	<rect id="Rectangle_3_" x="23" y="15" class="st1" width="2" height="10"/>
	<rect id="Rectangle_4_" x="5" y="19" class="st1" width="20" height="2"/>
	<rect id="Rectangle_5_" x="5" y="23" class="st1" width="20" height="2"/>
	<path class="st0" d="M29.4,9.6L29.4,9.6L29.4,9.6L20,0H0v40h30V10.3L29.4,9.6z M21,3.9l5.6,5.7H21V3.9z M2,38V2h17v9.6h9V38H2z"/>
</g>
</svg>
