<?xml version="1.0" encoding="UTF-8"?>
<svg width="20px" height="20px" viewBox="0 0 20 20" version="1.1" xmlns="http://www.w3.org/2000/svg" xmlns:xlink="http://www.w3.org/1999/xlink">
    <!-- Generator: sketchtool 64 (101010) - https://sketch.com -->
    <title>B047DB71-73E6-42DB-A79C-16B572B48860</title>
    <desc>Created with sketchtool.</desc>
    <g id="Modules" stroke="none" stroke-width="1" fill="none" fill-rule="evenodd">
        <g id="icons" transform="translate(-388.000000, -367.000000)" fill="#BDBCC7">
            <g id="Stacked-Group" transform="translate(108.000000, 367.000000)">
                <g id="icons/20x20/grey/share" transform="translate(280.000000, 0.000000)">
                    <path d="M16,11.875 C14.897,11.875 14,10.978 14,9.875 C14,8.772 14.897,7.875 16,7.875 C17.103,7.875 18,8.772 18,9.875 C18,10.978 17.103,11.875 16,11.875 M4,18 C2.897,18 2,17.103 2,16 C2,14.897 2.897,14 4,14 C6.643,14 6.644,18 4,18 M4,6 C2.897,6 2,5.103 2,4 C2,2.897 2.897,2 4,2 C6.643,2 6.644,6 4,6 M16,5.875 C14.779,5.875 13.7,6.434 12.966,7.296 L7.959,4.405 C8.212,1.919 6.269,0 4,0 C1.791,0 0,1.791 0,4 C0,6.209 1.791,8 4,8 C5.347,8 6.532,7.329 7.257,6.309 L12.079,9.093 C11.971,9.637 11.974,10.161 12.088,10.704 L7.141,13.551 C6.409,12.613 5.281,12 4,12 C1.791,12 0,13.791 0,16 C0,18.209 1.791,20 4,20 C6.362,20 8.324,17.928 7.939,15.399 L12.995,12.49 C13.728,13.332 14.796,13.875 16,13.875 C18.209,13.875 20,12.084 20,9.875 C20,7.666 18.209,5.875 16,5.875" id="share-" transform="translate(10.000000, 10.000000) scale(-1, 1) translate(-10.000000, -10.000000) "></path>
                </g>
            </g>
        </g>
    </g>
</svg>