<svg width="454" height="462" viewBox="0 0 454 462" fill="none" xmlns="http://www.w3.org/2000/svg">
<path d="M446.051 76.6259C443.523 70.1168 438.042 65.3949 431.39 63.9946C424.591 62.5592 417.488 64.7514 412.391 69.8495L364.86 117.38L341.651 94.1708L392.203 43.6185C397.466 38.3558 399.724 31.0268 398.249 24.0128C396.805 17.1554 391.934 11.5057 385.22 8.8986C341.102 -8.23953 290.975 2.31027 257.514 35.7703C239.896 53.3881 228.393 75.6333 224.238 100.115C223.35 104.279 222.49 108.701 221.58 113.378C216.265 140.698 209.651 174.699 190.256 194.091L16.61 367.738C-4.83158 389.18 -4.83158 424.07 16.61 445.512C27.3317 456.233 41.4146 461.593 55.4975 461.593C69.5795 461.593 83.6633 456.233 94.384 445.512L268.03 271.866C287.424 252.472 321.424 245.858 348.744 240.542C353.422 239.633 357.843 238.772 362.008 237.884C386.489 233.729 408.734 222.226 426.352 204.608C431.55 199.41 433.055 192.353 430.902 186.08C454.494 154.829 460.366 113.483 446.051 76.6259V76.6259ZM425.118 82.5753C425.91 81.7834 426.845 81.4288 427.683 81.607C428.402 81.7582 428.937 82.2747 429.274 83.1413C440.78 112.766 436.803 145.836 419.132 171.652L377.586 130.107L425.118 82.5753ZM413.625 191.883C398.623 206.884 379.673 216.665 358.826 220.169C358.694 220.191 358.565 220.216 358.434 220.244C354.377 221.111 349.971 221.968 345.306 222.876C315.581 228.659 278.585 235.856 255.301 259.139L81.6573 432.785C67.2343 447.21 43.7634 447.209 29.3376 432.784C14.9136 418.36 14.9136 394.89 29.3376 380.465L202.984 206.819C226.268 183.536 233.464 146.541 239.247 116.815C240.155 112.149 241.012 107.743 241.88 103.687C241.908 103.556 241.933 103.427 241.955 103.294C245.457 82.4484 255.238 63.4987 270.242 48.4961C289.617 29.1199 315.568 18.7924 342.001 18.7924C354.337 18.7924 366.782 21.0431 378.705 25.6741C379.789 26.0952 380.439 26.7828 380.636 27.7178C380.858 28.7734 380.435 29.9298 379.476 30.8882L322.56 87.8038C319.046 91.318 319.046 97.0164 322.56 100.531L413.674 191.645C413.706 191.677 413.734 191.706 413.759 191.734C413.724 191.78 413.679 191.828 413.625 191.883V191.883Z" fill="#C9C4BE"/>
<path d="M309.829 113.262C308.14 111.575 305.852 110.626 303.465 110.626C301.079 110.626 298.789 111.575 297.102 113.262L271.649 138.716C268.135 142.23 268.135 147.928 271.649 151.443L307.585 187.38C309.272 189.067 311.562 190.016 313.948 190.016C316.335 190.016 318.624 189.067 320.312 187.38L345.765 161.927C349.279 158.412 349.279 152.714 345.765 149.199L309.829 113.262ZM313.947 168.288L290.738 145.079L303.465 132.352L326.674 155.561L313.947 168.288Z" fill="#C9C4BE"/>
<path d="M61.8572 400.259C58.3421 396.744 52.6465 396.749 49.1323 400.262C45.6181 403.776 45.6199 409.476 49.1341 412.991C50.8917 414.748 53.1946 415.627 55.4975 415.627C57.8004 415.627 60.1033 414.748 61.8608 412.991C65.375 409.477 65.375 403.779 61.8608 400.264L61.8572 400.259Z" fill="#C9C4BE"/>
<path d="M222.782 226.62L77.7714 371.63C74.2572 375.144 74.2572 380.842 77.7714 384.357C79.5289 386.114 81.8318 386.993 84.1347 386.993C86.4377 386.993 88.7406 386.114 90.4981 384.357L235.509 239.346C239.023 235.832 239.023 230.134 235.509 226.619C231.994 223.105 226.297 223.105 222.782 226.62Z" fill="#C9C4BE"/>
</svg>
