<svg width="342" height="319" viewBox="0 0 342 319" fill="none" xmlns="http://www.w3.org/2000/svg">
<path d="M248.056 213.625C253.064 211.924 257.978 210.223 262.845 208.522C274.137 204.648 285.382 200.632 296.722 196.899C308.817 192.93 320.11 194.631 329.937 202.947C337.733 209.562 341.419 218.397 341.041 228.556C340.521 242.588 333.528 252.605 320.724 258.322C295.115 269.709 269.507 280.907 243.851 292.199C229.109 298.672 214.463 305.334 199.627 311.571C185.925 317.382 171.561 319.225 156.772 317.713C142.787 316.296 129.983 311.618 118.029 304.295C107.729 297.963 97.3813 291.821 86.9866 285.632C83.5848 283.6 79.8049 282.655 76.025 281.804C75.6943 281.71 75.1273 282.041 74.8911 282.324C70.497 287.758 64.8744 291.254 57.9762 292.483C56.3225 292.766 54.6216 292.908 52.9206 292.908C40.4471 292.955 27.9735 292.908 15.5 292.908C6.71179 292.908 0.23877 286.435 0.23877 277.647C0.23877 239.895 0.23877 202.191 0.23877 164.44C0.23877 155.793 6.75903 149.273 15.4055 149.273C27.9735 149.273 40.5888 149.226 53.1569 149.273C62.5593 149.32 70.0245 153.336 75.5998 160.896C76.1195 161.652 76.6865 161.841 77.537 161.841C90.3413 161.841 103.193 161.794 115.997 161.841C124.596 161.888 132.77 163.825 140.33 167.936C148.74 172.519 157.056 177.291 165.419 182.016C168.112 183.528 170.805 185.087 173.546 186.552C174.207 186.883 175.01 187.119 175.766 187.119C188.759 187.166 201.753 187.072 214.699 187.166C226.983 187.261 236.527 192.6 243.378 202.758C245.41 205.735 246.78 209.042 247.678 212.538C247.82 212.869 247.914 213.153 248.056 213.625ZM80.7499 252.132C80.8916 252.18 80.9861 252.227 81.0806 252.274C81.4113 252.369 81.7893 252.416 82.1201 252.51C88.4986 253.928 94.8299 255.676 100.5 259.031C112.028 265.74 123.368 272.733 134.849 279.489C151.906 289.553 169.813 291.254 188.24 283.883C197.311 280.292 206.194 276.087 215.124 272.166C243.095 259.881 271.066 247.549 299.037 235.218C302.439 233.706 305.888 232.241 309.29 230.682C310.896 229.973 311.511 228.65 311.085 226.902C310.707 225.343 309.81 224.728 307.92 224.823C307.305 224.87 306.691 225.059 306.077 225.248C284.107 232.761 262.183 240.32 240.213 247.88C236.338 249.203 232.464 250.479 228.684 252.038C224.243 253.881 219.613 254.967 214.841 254.967C193.579 254.967 172.364 254.967 151.103 254.967C150.016 254.967 148.882 254.873 147.842 254.684C139.999 253.077 135.085 246.226 135.889 238.1C136.597 230.776 143.212 225.059 150.961 225.059C171.939 225.059 192.917 225.059 213.896 225.059C214.368 225.059 214.841 225.059 215.313 225.059C218.337 224.776 219.991 221.468 218.337 218.917C217.439 217.547 216.116 217.074 214.51 217.074C201.091 217.074 187.673 217.074 174.254 217.074C169.482 217.074 164.994 215.988 160.788 213.672C149.543 207.388 138.298 201.057 127.1 194.726C123.793 192.883 120.202 191.844 116.422 191.796C104.894 191.749 93.3652 191.796 81.8366 191.749C81.5531 191.749 81.2223 191.796 80.8444 191.796C80.7499 212.019 80.7499 232.052 80.7499 252.132ZM30.1469 262.905C37.0924 262.905 43.8962 262.905 50.6999 262.905C50.6999 234.981 50.6999 207.105 50.6999 179.228C43.8017 179.228 36.9979 179.228 30.1469 179.228C30.1469 207.199 30.1469 235.029 30.1469 262.905Z" fill="#8D867D"/>
<path d="M197.075 137.697C202.509 133.02 207.942 128.437 213.329 123.806C223.44 115.113 233.598 106.466 242.953 96.9693C248.529 91.2995 253.821 85.3935 257.884 78.4953C263.884 68.3841 265.255 57.7533 260.861 46.7444C257.317 37.8145 250.749 32.1447 241.111 30.5855C233.031 29.2625 226.228 31.9084 220.605 37.7672C215.88 42.7755 212.62 48.6343 210.588 55.2018C208.604 61.5331 202.84 65.8327 196.272 65.8327C189.61 65.8327 183.846 61.5331 181.909 55.1073C179.971 48.4926 176.759 42.681 171.892 37.72C159.324 25.0102 141.417 29.7823 133.904 42.4448C132.487 44.8545 131.447 47.5476 130.503 50.1935C128.235 56.761 122.376 60.8716 115.336 60.6354C108.91 60.3992 103.24 55.6743 101.681 49.2013C101.02 46.4609 101.161 43.7678 102.012 41.0746C106.642 26.1914 115.383 14.4738 129.18 6.91409C138.724 1.66953 148.977 -0.314899 159.796 0.582818C174.254 1.76403 185.925 8.42603 195.469 19.1514C195.658 19.3876 195.894 19.6239 196.083 19.8601C196.13 19.9074 196.225 19.9546 196.13 19.9074C198.871 17.3087 201.469 14.5683 204.352 12.2531C216.069 2.61449 229.629 -1.11812 244.56 0.960804C264.688 3.70121 278.72 14.9463 287.414 33.0896C292.422 43.4843 294.029 54.5876 292.989 66.069C292.044 76.6053 288.359 86.244 282.784 95.1739C277.775 103.253 271.586 110.482 264.971 117.239C253.868 128.626 241.772 138.926 229.677 149.273C222.117 155.793 214.51 162.266 206.95 168.787C201.091 173.795 193.106 173.89 187.2 168.881C172.364 156.313 157.481 143.745 142.74 131.035C133.007 122.625 123.699 113.742 115.714 103.584C113.162 100.324 111.698 96.7331 112.076 92.5752C112.595 86.622 115.667 82.2751 121.1 79.9127C126.439 77.5975 131.589 78.4008 136.22 81.9444C137.117 82.6058 137.968 83.4563 138.629 84.354C144.204 91.583 150.583 98.056 157.434 104.057C170.286 115.254 183.279 126.216 196.225 137.272C196.556 137.272 196.792 137.461 197.075 137.697Z" fill="#8D867D"/>
</svg>
