<?xml version="1.0" encoding="utf-8"?>
<!-- Generator: Adobe Illustrator 24.2.3, SVG Export Plug-In . SVG Version: 6.00 Build 0)  -->
<svg version="1.1" id="Ebene_1" xmlns="http://www.w3.org/2000/svg" xmlns:xlink="http://www.w3.org/1999/xlink" x="0px" y="0px"
	 viewBox="0 0 30 40" style="enable-background:new 0 0 30 40;" xml:space="preserve">
<style type="text/css">
	.st0{fill:#D3D3DA;}
	.st1{fill-rule:evenodd;clip-rule:evenodd;fill:#D3D3DA;}
</style>
<desc>Created with Sketch.</desc>
<g id="icons_x2F_fileformats_x2F_grey_x2F_ppt">
	<path id="PPT" class="st0" d="M6,35v-2.4h1.6c1.5,0,2.5-1,2.5-2.4c0-1.4-0.9-2.4-2.4-2.4H4.7V35H6z M7.5,31.3H6V29h1.5
		c0.8,0,1.2,0.5,1.2,1.2C8.7,30.8,8.3,31.3,7.5,31.3z M12.4,35v-2.4h1.6c1.5,0,2.5-1,2.5-2.4c0-1.4-0.9-2.4-2.4-2.4h-2.9V35H12.4z
		 M13.8,31.3h-1.5V29h1.5c0.8,0,1.2,0.5,1.2,1.2C15.1,30.8,14.6,31.3,13.8,31.3z M20.3,35v-6h2v-1.3H17V29h2v6H20.3z"/>
	<rect id="Rectangle" x="13" y="12" class="st1" width="2" height="13"/>
	<rect id="Rectangle_1_" x="9" y="7" class="st1" width="2" height="18"/>
	<rect id="Rectangle_2_" x="5" y="15" class="st1" width="2" height="10"/>
	<rect id="Rectangle-Copy" x="17" y="20" class="st1" width="2" height="5"/>
	<path class="st0" d="M29.4,9.6L29.4,9.6L29.4,9.6L20,0H0v40h30V10.3L29.4,9.6z M21,3.9l5.6,5.7H21V3.9z M2,38V2h17v9.6h9V38H2z"/>
</g>
</svg>
