<?xml version="1.0" encoding="UTF-8"?>
<svg width="24px" height="24px" viewBox="0 0 24 24" version="1.1" xmlns="http://www.w3.org/2000/svg" xmlns:xlink="http://www.w3.org/1999/xlink">
    <title>chat</title>
    <g id="chat" stroke="none" stroke-width="1" fill="none" fill-rule="evenodd">
        <path d="M16,2 C19.6881703,2 22.7250537,4.85754869 22.982842,8.51689774 L22.9956923,8.75666659 L23,9 L23,11 C23,14.6881703 20.1424513,17.7250537 16.4831023,17.982842 L16.2433334,17.9956923 L16,18 L7.414,18 L2,23.4142136 L2,9 C2,5.31182965 4.85754869,2.27494627 8.51689774,2.01715798 L8.75666659,2.00430768 L9,2 L16,2 Z M9.01839514,3.9998308 L8.81189302,4.00345997 C6.2054942,4.09952215 4.11881458,6.1875683 4.00489904,8.7768673 L4,9 L4,18.584 L6.58578644,16 L15.9816049,16.0001692 L16.188107,15.99654 C18.7945058,15.9004778 20.8813454,13.8124317 20.9952698,11.2231327 L21.0001692,11 L21.0001692,9.01839514 L20.99654,8.81189302 C20.9004778,6.2054942 18.8124317,4.11881458 16.2231327,4.00489904 L16,4 L9.01839514,3.9998308 Z M8.742,8.894 C9.418,8.894 9.912,9.375 9.912,10.025 C9.912,10.675 9.418,11.182 8.742,11.182 C8.04,11.182 7.585,10.675 7.585,10.025 C7.585,9.375 8.04,8.894 8.742,8.894 Z M12.395,8.894 C13.097,8.894 13.539,9.375 13.539,10.025 C13.539,10.675 13.097,11.182 12.395,11.182 C11.693,11.182 11.238,10.675 11.238,10.025 C11.238,9.375 11.693,8.894 12.395,8.894 Z M16.035,8.894 C16.763,8.894 17.218,9.375 17.218,10.025 C17.218,10.675 16.763,11.182 16.035,11.182 C15.372,11.182 14.891,10.675 14.891,10.025 C14.891,9.375 15.372,8.894 16.035,8.894 Z" id="Shape" fill="#000000" fill-rule="nonzero"></path>
    </g>
</svg>