<?xml version="1.0" encoding="utf-8"?>
<!-- Generator: Adobe Illustrator 24.2.3, SVG Export Plug-In . SVG Version: 6.00 Build 0)  -->
<svg version="1.1" id="Ebene_1" xmlns="http://www.w3.org/2000/svg" xmlns:xlink="http://www.w3.org/1999/xlink" x="0px" y="0px"
	 viewBox="0 0 16 18" style="enable-background:new 0 0 16 18;" xml:space="preserve">
<style type="text/css">
	.st0{fill-rule:evenodd;clip-rule:evenodd;fill:#2D2B62;}
</style>
<desc>Created with sketchtool.</desc>
<g id="Modules">
	<g id="icons" transform="translate(-710.000000, -368.000000)">
		<g id="Stacked-Group" transform="translate(108.000000, 367.000000)">
			<g id="icons_x2F_reset-copy" transform="translate(600.000000, 0.000000)">
				<path id="reset" class="st0" d="M4,11.9c0.5,3.3,3.7,5.8,7.3,5c2.3-0.5,4.1-2.3,4.6-4.6C16.7,8.4,14,5,10,5v2L5,4l5-3v2
					c5,0,8.9,4.5,7.9,9.6c-0.6,3.1-3.1,5.6-6.3,6.2c-4.7,0.9-8.9-2.3-9.6-6.7C1.9,11.5,2.4,11,3,11h0C3.5,11,3.9,11.4,4,11.9"/>
			</g>
		</g>
	</g>
</g>
</svg>
