<?xml version="1.0" encoding="UTF-8"?>
<svg width="20px" height="20px" viewBox="0 0 20 20" version="1.1" xmlns="http://www.w3.org/2000/svg" xmlns:xlink="http://www.w3.org/1999/xlink">
    <!-- Generator: sketchtool 64 (101010) - https://sketch.com -->
    <title>7687101B-4840-43BE-A415-E129D67126BF</title>
    <desc>Created with sketchtool.</desc>
    <g id="Modules" stroke="none" stroke-width="1" fill="none" fill-rule="evenodd">
        <g id="icons" transform="translate(-308.000000, -367.000000)" fill="#BDBCC7">
            <g id="Stacked-Group" transform="translate(108.000000, 367.000000)">
                <g id="icons/20x20/grey/link" transform="translate(200.000000, 0.000000)">
                    <path d="M18.1460454,1.85397782 C15.674106,-0.617992605 11.6660402,-0.617992605 9.19410079,1.85397782 L6.49005435,4.55805814 L7.98186928,6.04989176 L10.6859157,3.34581144 C12.3349304,1.69677611 15.0041608,1.69677611 16.6542305,3.34581144 C18.299025,4.99168163 18.299025,7.66833078 16.6542305,9.31420097 L13.950184,12.0182813 L15.441999,13.5101149 L18.1460454,10.8060346 C20.6179849,8.33406417 20.6179849,4.32594824 18.1460454,1.85397782 L18.1460454,1.85397782 Z M9.31408428,16.6533973 C8.51753529,17.4510113 7.45722835,17.88991 6.33045442,17.88991 C5.20368048,17.88991 4.14337354,17.4510113 3.34682455,16.6533973 C1.70097498,15.0085821 1.70097498,12.3308779 3.34682455,10.6860628 L6.05087099,7.98198247 L4.55800103,6.4890938 L1.85395459,9.19317412 C-0.617984863,11.6651445 -0.617984863,15.6732605 1.85395459,18.1462859 C3.09045183,19.3817436 4.70992561,20 6.33045442,20 C7.95098322,20 9.570457,19.3817436 10.8069542,18.1462859 L13.5110007,15.4422056 L12.0181307,13.949317 L9.31408428,16.6533973 Z M12.9085775,5.59969087 L14.4003925,7.09152449 L7.38390563,14.1080899 L5.8920907,12.6162563 L12.9085775,5.59969087 Z" id="link_round-[#1110]"></path>
                </g>
            </g>
        </g>
    </g>
</svg>