<?xml version="1.0" encoding="utf-8"?>
<!-- Generator: Adobe Illustrator 24.2.3, SVG Export Plug-In . SVG Version: 6.00 Build 0)  -->
<svg version="1.1" id="Ebene_1" xmlns="http://www.w3.org/2000/svg" xmlns:xlink="http://www.w3.org/1999/xlink" x="0px" y="0px"
	 viewBox="0 0 30 40" style="enable-background:new 0 0 30 40;" xml:space="preserve">
<style type="text/css">
	.st0{fill:#D3D3DA;}
	.st1{fill-rule:evenodd;clip-rule:evenodd;fill:#D3D3DA;}
</style>
<desc>Created with Sketch.</desc>
<path id="DOC" class="st0" d="M7.1,35c2.1,0,3.4-1.3,3.4-3.7c0-2.2-1.2-3.6-3.4-3.6H4.7V35H7.1z M7,33.7H6V29h1
	c1.3,0,2.1,0.9,2.1,2.4C9.1,32.8,8.3,33.7,7,33.7z M15,35.2c2.2,0,3.7-1.6,3.7-3.8c0-2.2-1.5-3.8-3.7-3.8s-3.7,1.6-3.7,3.8
	C11.3,33.5,12.8,35.2,15,35.2z M15,33.8c-1.3,0-2.2-1-2.2-2.5c0-1.5,0.9-2.5,2.2-2.5c1.3,0,2.2,1,2.2,2.5
	C17.2,32.8,16.3,33.8,15,33.8z M22.9,35.2c1.6,0,2.9-0.9,3.2-2.3l-1.3-0.5c-0.2,0.9-1,1.4-1.9,1.4c-1.2,0-2.1-1-2.1-2.5
	c0-1.5,0.8-2.5,2.1-2.5c0.9,0,1.7,0.6,1.9,1.4l1.3-0.5c-0.4-1.4-1.6-2.3-3.2-2.3c-2.1,0-3.5,1.5-3.5,3.8
	C19.4,33.6,20.8,35.2,22.9,35.2z"/>
<rect id="Rectangle" x="5" y="15" class="st1" width="20" height="2"/>
<rect id="Rectangle_1_" x="5" y="19" class="st1" width="20" height="2"/>
<rect id="Rectangle_2_" x="5" y="23" class="st1" width="12" height="2"/>
<path class="st0" d="M29.4,9.6L29.4,9.6L29.4,9.6L20,0H0v40h30V10.3L29.4,9.6z M21,3.9l5.6,5.7H21V3.9z M2,38V2h17v9.6h9V38H2z"/>
</svg>
