<?xml version="1.0" encoding="utf-8"?>
<!-- Generator: Adobe Illustrator 24.2.1, SVG Export Plug-In . SVG Version: 6.00 Build 0)  -->
<svg version="1.1" id="Ebene_1" xmlns="http://www.w3.org/2000/svg" xmlns:xlink="http://www.w3.org/1999/xlink" x="0px" y="0px"
	 viewBox="0 0 303.31 303.31" style="enable-background:new 0 0 303.31 303.31;" xml:space="preserve">
<style type="text/css">
	.st0{fill-rule:evenodd;clip-rule:evenodd;fill:#FF564E;}
</style>
<path class="st0" d="M300.07,61.26c-11.15,4.87-23,8.07-35.12,9.48c12.76-7.53,22.32-19.36,26.89-33.32
	C279.83,44.44,266.7,49.39,253,52.05c-23.17-24.25-61.91-25.42-86.55-2.61c-15.88,14.71-22.63,36.63-17.7,57.55
	c-49.18-2.44-95-25.3-126.07-62.92c-16.23,27.52-7.93,62.71,18.95,80.39c-9.73-0.28-19.26-2.86-27.77-7.53v0.76
	c0.02,28.66,20.54,53.35,49.08,59.03c-9,2.42-18.46,2.77-27.61,1.03c8.01,24.54,30.98,41.35,57.14,41.83
	c-21.66,16.76-48.42,25.86-75.97,25.83c-4.86-0.01-9.72-0.29-14.56-0.87c27.98,17.67,60.52,27.05,93.77,27.01
	c112.51,0.04,174.04-91.73,174.04-171.31c0-2.61,0-5.21-0.18-7.79C281.53,83.93,291.86,73.36,300.07,61.26z"/>
</svg>
