<svg width="132" height="41" viewBox="0 0 132 41" fill="none" xmlns="http://www.w3.org/2000/svg">
<path d="M12.3947 14.6725V16.8615H8.04624V26.653H5.05851V16.8911H0.710022V14.702H12.3947V14.6725Z" fill="white"/>
<path d="M19.4649 14.6726L24.7896 26.6531H21.5652L20.589 24.2866H15.2051L14.3177 26.6531H11.1525L16.0038 14.6726H19.4649ZM19.7015 22.2159L17.7491 17.542L15.9743 22.2159H19.7015Z" fill="white"/>
<path d="M26.032 14.6726H31.3862C32.5399 14.6726 33.4865 14.998 34.2261 15.6783C34.9656 16.3587 35.3206 17.1574 35.3206 18.1336C35.3206 19.4648 34.6402 20.441 33.2499 21.0622C33.8415 21.3284 34.4331 22.0679 34.9656 23.2808C35.4981 24.4936 36.0305 25.6177 36.5334 26.6827H33.2499C33.0428 26.2981 32.7174 25.529 32.2145 24.4345C31.7412 23.3104 31.3271 22.6004 30.9721 22.3046C30.6171 21.9792 30.2621 21.8313 29.848 21.8313H28.9901V26.7122H26.032V14.6726ZM29.0197 16.8912V19.6127H30.5875C31.0904 19.6127 31.5046 19.4944 31.7708 19.2577C32.0666 19.021 32.2145 18.6957 32.2145 18.2519C32.2145 17.3349 31.6525 16.8912 30.4988 16.8912H29.0197Z" fill="white"/>
<path d="M58.6009 0C46.7387 0 37.0951 9.17027 37.0951 20.5C37.0951 31.8297 46.7091 41 58.6009 41C70.4631 41 80.1067 31.8297 80.1067 20.5C80.1067 9.17027 70.4927 0 58.6009 0ZM52.1226 25.2035C51.6493 25.6768 50.9393 26.0613 49.9631 26.3571C48.9869 26.653 48.0403 26.8009 47.0937 26.8009C44.9934 26.8009 43.2777 26.2388 41.9465 25.0851C40.6154 23.9315 39.935 22.4524 39.935 20.6775C39.935 18.8434 40.6154 17.3644 41.9465 16.2403C43.2777 15.0866 45.023 14.5245 47.1529 14.5245C48.9278 14.5245 50.4956 14.8499 51.8859 15.5007V18.1335C50.3477 17.3939 48.8686 17.039 47.4191 17.039C45.9992 17.039 44.9343 17.3939 44.1651 18.1039C43.396 18.8139 43.0115 19.7309 43.0115 20.8254C43.0115 21.8903 43.396 22.7186 44.1651 23.3694C44.9343 24.0202 45.94 24.3456 47.1825 24.3456C47.8332 24.3456 48.5136 24.1977 49.1644 23.9315V22.5411H47.4191V20.3521H52.1521V25.2035H52.1226ZM63.2748 26.6825H54.4299V14.6724H63.1565V16.8615H57.4177V19.3759H62.8902V21.5945H57.4177V24.4935H63.2748V26.6825ZM72.0901 16.8911V26.6825H69.1024V16.8911H64.7539V14.702H76.4386V16.8911H72.0901Z" fill="white"/>
<path d="M93.6848 14.6727V26.6532H90.697V21.8314H84.7216V26.6828H81.7338V14.6727H84.7216V19.4945H90.697V14.6727H93.6848Z" fill="white"/>
<path d="M102.589 14.5248C104.63 14.5248 106.287 15.146 107.559 16.3884C108.831 17.6309 109.452 19.0508 109.452 20.7073C109.452 22.3639 108.801 23.8134 107.529 25.0262C106.257 26.2391 104.6 26.8603 102.589 26.8603C100.548 26.8603 98.8912 26.2391 97.6191 25.0262C96.3471 23.8134 95.6964 22.3639 95.6964 20.7073C95.6964 19.0508 96.3176 17.6309 97.5896 16.3884C98.8912 15.146 100.548 14.5248 102.589 14.5248ZM102.589 24.3459C103.713 24.3459 104.63 24.0205 105.34 23.3401C106.02 22.6597 106.375 21.7723 106.375 20.6778C106.375 19.5832 106.02 18.6958 105.34 18.0154C104.66 17.335 103.743 17.0096 102.589 17.0096C101.465 17.0096 100.548 17.335 99.8378 18.0154C99.1574 18.6958 98.8024 19.5832 98.8024 20.6778C98.8024 21.7723 99.1574 22.6597 99.8378 23.3401C100.548 24.0205 101.465 24.3459 102.589 24.3459Z" fill="white"/>
<path d="M111.552 14.6727H116.906C118.119 14.6727 119.095 15.0277 119.805 15.7377C120.515 16.4476 120.87 17.2759 120.87 18.2225C120.87 19.2283 120.515 20.0566 119.805 20.7665C119.095 21.4765 118.148 21.8314 116.906 21.8314H114.54V26.6532H111.552V14.6727ZM114.54 16.8913V19.672H115.93C117.172 19.672 117.794 19.1987 117.794 18.2817C117.794 17.7492 117.616 17.3942 117.291 17.1871C116.965 16.9801 116.403 16.8913 115.604 16.8913H114.54Z" fill="white"/>
<path d="M131.342 24.4938V26.6828H122.497V14.6727H131.224V16.8617H125.485V19.3762H130.958V21.5948H125.485V24.4938H131.342Z" fill="white"/>
</svg>
