<?xml version="1.0" encoding="UTF-8"?>
<svg width="24px" height="24px" viewBox="0 0 24 24" version="1.1" xmlns="http://www.w3.org/2000/svg" xmlns:xlink="http://www.w3.org/1999/xlink">
    <title>?!</title>
    <g id="?!" stroke="none" stroke-width="1" fill="none" fill-rule="evenodd">
        <path d="M9.34187464,15.8010471 L9.34187464,15.4554974 C9.34187464,13.7905759 10.2528694,12.973822 11.4465867,11.6230366 C13.3314034,9.54973822 14.2423982,7.97905759 14.2423982,5.87434555 C14.2423982,2.35602094 11.6036547,0 7.7397804,0 C2.96491129,0 0.514649507,3.76963351 1.08009453,7.35078534 L5.22669139,7.91623037 C4.66124637,5.78010471 5.63506836,4.17801047 7.4884715,4.17801047 C8.87067045,4.17801047 9.7502516,4.9947644 9.7502516,6.40837696 C9.7502516,7.72774869 8.90208406,8.63874346 7.86543485,9.7382199 C6.01203171,11.7486911 5.06962333,13.2251309 5.06962333,15.5811518 L5.06962333,15.8010471 L9.34187464,15.8010471 Z M7.39423066,23.9685864 C9.31046103,23.9685864 10.5355919,22.5235602 10.5355919,20.7643979 C10.5355919,19.0052356 9.31046103,17.6544503 7.39423066,17.6544503 C5.41517307,17.6544503 4.22145579,19.0052356 4.22145579,20.7643979 C4.22145579,22.5235602 5.41517307,23.9685864 7.39423066,23.9685864 Z M22.127215,15.1727749 L22.6298328,0.502617801 L18.3261678,0.502617801 L18.8287856,15.1727749 L22.127215,15.1727749 Z M20.4937071,24 C22.4099375,24 23.6350684,22.5549738 23.6350684,20.7958115 C23.6350684,19.0052356 22.4099375,17.6544503 20.4937071,17.6544503 C18.5460631,17.6544503 17.2895186,19.0052356 17.2895186,20.7958115 C17.2895186,22.5549738 18.5460631,24 20.4937071,24 Z" fill="#000000" fill-rule="nonzero"></path>
    </g>
</svg>