<?xml version="1.0" encoding="utf-8"?>
<!-- Generator: Adobe Illustrator 24.2.3, SVG Export Plug-In . SVG Version: 6.00 Build 0)  -->
<svg version="1.1" id="Ebene_1" xmlns="http://www.w3.org/2000/svg" xmlns:xlink="http://www.w3.org/1999/xlink" x="0px" y="0px"
	 viewBox="0 0 30 40" style="enable-background:new 0 0 30 40;" xml:space="preserve">
<style type="text/css">
	.st0{fill:#D3D3DA;}
	.st1{fill-rule:evenodd;clip-rule:evenodd;fill:#D3D3DA;}
</style>
<desc>Created with Sketch.</desc>
<g id="icons_x2F_fileformats_x2F_grey_x2F_pdf">
	<path id="PDF" class="st0" d="M6,35v-2.4h1.6c1.5,0,2.5-1,2.5-2.4c0-1.4-0.9-2.4-2.4-2.4H4.7V35H6z M7.5,31.3H6V29h1.5
		c0.8,0,1.2,0.5,1.2,1.2C8.7,30.8,8.3,31.3,7.5,31.3z M13.4,35c2.1,0,3.4-1.3,3.4-3.7c0-2.2-1.2-3.6-3.4-3.6h-2.4V35H13.4z
		 M13.3,33.7h-1V29h1c1.3,0,2.1,0.9,2.1,2.4C15.4,32.8,14.7,33.7,13.3,33.7z M19.2,35v-3h2.4v-1.2h-2.4V29h2.9v-1.3h-4.2V35H19.2z"
		/>
	<path id="Fill-1" class="st1" d="M23.4,18.6c-0.1,0.1-0.4,0.1-0.6,0.1c-0.6,0-1.4-0.2-2.5-0.6c0.4-0.1,0.8-0.1,1.1-0.1
		c0.6,0,0.8-0.1,1.4,0C23.5,18.3,23.5,18.6,23.4,18.6 M12.5,19.5c0.2-0.4,0.4-0.9,0.6-1.4c0.5-1.2,0.9-2.1,1.1-2.9
		c0.7,1,1.4,1.8,2.4,2.5c0.1,0.1,0.2,0.2,0.4,0.2C15.2,18.4,13.8,18.9,12.5,19.5 M13.7,8.5c0.3,0,0.6,0.8,0.7,1.6
		c0.1,0.8-0.1,1.4-0.3,1.8c-0.2-0.6-0.4-1.5-0.5-2.2C13.6,9.8,13.5,8.6,13.7,8.5 M8.1,24.2c0.2-0.5,0.9-1.6,1.9-2.6
		c0.1-0.1,0.2-0.2,0.4-0.4C9.3,23.2,8.6,24,8.1,24.2 M23.7,17.5c-0.4-0.3-1.2-0.4-2.3-0.4c-0.8,0-1.7,0.2-2.7,0.4
		c-0.5-0.2-1-0.5-1.3-0.8c-1-0.8-2-2-2.6-3.3c0-0.1,0-0.2,0.1-0.4c0,0,0.3-3.1,0.1-4.1c0-0.1,0-0.2-0.1-0.3l-0.1-0.1
		c-0.2-0.3-0.5-0.7-1-0.6l-0.3,0h0c-0.5,0-0.9,0.3-1,0.7c-0.2,1.2,0.2,3,1,5.3l-0.1,0.4c-0.4,1.1-0.8,2.2-1.3,3.2l-0.1,0.1
		c-0.4,1-0.9,1.9-1.2,2.6l-0.4,0.3c0,0-0.8,0.5-0.9,0.6c-1.4,1-2.4,2-2.5,2.8c0,0.3,0,0.6,0.3,0.7l0.4,0.2C8,25,8.2,25,8.3,25
		c1.1-0.1,2.2-1.5,3.7-4.5c1.9-0.8,4.1-1.5,6.1-1.9c1.6,0.7,3.5,1.2,4.6,1.1c0.2,0,0.4,0,0.5-0.1c0.2-0.1,0.4-0.2,0.5-0.4
		c0.2-0.3,0.2-0.8,0.1-1.3C23.9,17.8,23.8,17.6,23.7,17.5"/>
	<path class="st0" d="M29.4,9.6L29.4,9.6L29.4,9.6L20,0H0v40h30V10.3L29.4,9.6z M21,3.9l5.6,5.7H21V3.9z M2,38V2h17v9.6h9V38H2z"/>
</g>
</svg>
