<svg width="311" height="311" viewBox="0 0 311 311" fill="none" xmlns="http://www.w3.org/2000/svg">
<path fill-rule="evenodd" clip-rule="evenodd" d="M302.221 8.77804C313.39 19.9463 313.39 38.0536 302.221 49.2218L49.2213 302.222C38.053 313.39 19.9458 313.39 8.77754 302.222C-2.39069 291.053 -2.39069 272.946 8.77755 261.778L261.778 8.77802C272.946 -2.39021 291.053 -2.3902 302.221 8.77804Z" fill="white"/>
<path fill-rule="evenodd" clip-rule="evenodd" d="M8.77754 8.7782C19.9458 -2.39003 38.0531 -2.39 49.2213 8.77822L302.221 261.778C313.389 272.946 313.389 291.054 302.221 302.222C291.053 313.39 272.946 313.39 261.777 302.222L8.77752 49.222C-2.39071 38.0537 -2.3907 19.9464 8.77754 8.7782Z" fill="white"/>
</svg>
