<?xml version="1.0" encoding="utf-8"?>
<!-- Generator: Adobe Illustrator 24.2.1, SVG Export Plug-In . SVG Version: 6.00 Build 0)  -->
<svg version="1.1" id="Ebene_1" xmlns="http://www.w3.org/2000/svg" xmlns:xlink="http://www.w3.org/1999/xlink" x="0px" y="0px"
	 viewBox="0 0 18 19" style="enable-background:new 0 0 18 19;" xml:space="preserve">
<style type="text/css">
	.st0{fill:#65647C;}
</style>
<desc>Created with sketchtool.</desc>
<path class="st0" d="M18,12l-2-2V7c0-1.9-0.7-3.6-2.1-4.9C12.6,0.7,10.9,0,9,0C7.1,0,5.4,0.7,4.1,2.1S2,5.1,2,7v3l-2,2v3h6v1
	c0,0.8,0.3,1.6,0.9,2.1C7.4,18.7,8.2,19,9,19c0.8,0,1.6-0.3,2.1-0.9S12,16.8,12,16v-1h6V12z M10,16c0,0.3-0.1,0.5-0.3,0.7
	c-0.4,0.4-1,0.4-1.4,0C8.1,16.5,8,16.3,8,16v-1h2V16z M16,13h-4H6H2v-0.2l2-2V7c0-1.3,0.5-2.6,1.5-3.5S7.7,2,9,2
	c1.3,0,2.6,0.5,3.5,1.5C13.5,4.4,14,5.7,14,7v3.8l2,2V13z"/>
</svg>
