<?xml version="1.0" encoding="UTF-8"?>
<svg width="24px" height="24px" viewBox="0 0 24 24" version="1.1" xmlns="http://www.w3.org/2000/svg" xmlns:xlink="http://www.w3.org/1999/xlink">
    <title>linkedin</title>
    <g id="linkedin" stroke="none" stroke-width="1" fill="none" fill-rule="evenodd">
        <path d="M21,21 L17.6,21 L17.6,15.05085 C17.6,13.41885 16.88005,12.5085 15.5889,12.5085 C14.18385,12.5085 13.35,13.4571 13.35,15.05085 L13.35,21 L9.95,21 L9.95,9.95 L13.35,9.95 L13.35,11.1927 C13.35,11.1927 14.41675,9.321 16.82055,9.321 C19.2252,9.321 21,10.7881 21,13.8243 L21,21 L21,21 Z M6.0757,8.18285 C4.92905,8.18285 4,7.24615 4,6.091 C4,4.9367 4.92905,4 6.0757,4 C7.2215,4 8.15055,4.9367 8.15055,6.091 C8.1514,7.24615 7.2215,8.18285 6.0757,8.18285 L6.0757,8.18285 Z M4,21 L8.25,21 L8.25,9.95 L4,9.95 L4,21 Z" fill="#000000"></path>
    </g>
</svg>