<svg width="310" height="244" viewBox="0 0 310 244" fill="none" xmlns="http://www.w3.org/2000/svg">
<path d="M232.001 91.8026V213.51H201.112V91.8026H108.445V213.51H77.5557V91.8026C65.2673 91.8026 53.4821 96.6111 44.7929 105.17C36.1036 113.729 31.2221 125.338 31.2221 137.443V167.869C31.2221 179.974 36.1036 191.583 44.7929 200.142C53.4821 208.701 65.2673 213.51 77.5557 213.51H232.001C244.29 213.51 256.075 208.701 264.764 200.142C273.453 191.583 278.335 179.974 278.335 167.869V137.443C278.335 125.338 273.453 113.729 264.764 105.17C256.075 96.6111 244.29 91.8026 232.001 91.8026ZM111.07 61.3759H198.486C195.274 52.4887 189.349 44.7983 181.523 39.3603C173.698 33.9222 164.355 31.0028 154.778 31.0028C145.201 31.0028 135.859 33.9222 128.033 39.3603C120.208 44.7983 114.282 52.4887 111.07 61.3759ZM79.1001 61.3759C82.6753 44.2054 92.1584 28.7771 105.947 17.6979C119.736 6.61869 136.984 0.567871 154.778 0.567871C172.573 0.567871 189.821 6.61869 203.61 17.6979C217.398 28.7771 226.881 44.2054 230.457 61.3759H232.001C252.482 61.3759 272.124 69.39 286.606 83.6553C301.088 97.9206 309.224 117.269 309.224 137.443V167.869C309.224 188.044 301.088 207.392 286.606 221.657C272.124 235.922 252.482 243.936 232.001 243.936H77.5557C57.075 243.936 37.4331 235.922 22.951 221.657C8.46894 207.392 0.333008 188.044 0.333008 167.869V137.443C0.333008 117.269 8.46894 97.9206 22.951 83.6553C37.4331 69.39 57.075 61.3759 77.5557 61.3759H79.1001Z" fill="#8D867D"/>
</svg>
