<svg width="2497" height="1335" viewBox="0 0 2497 1335" fill="none" xmlns="http://www.w3.org/2000/svg">
<path d="M2254.38 445.106C2240.28 432.677 2227.3 421.378 2213.75 410.079C2207.55 404.43 2200.78 398.78 2194 394.261C2186.1 389.741 2175.95 382.397 2168.05 389.176C2158.45 397.085 2168.05 406.125 2172 413.469C2179.33 425.898 2187.23 438.326 2196.26 449.625C2222.22 481.262 2214.32 529.847 2178.2 551.315C2159.02 562.614 2138.7 573.913 2116.13 577.303C2089.04 581.822 2091.3 592.556 2105.97 609.504C2111.05 615.154 2114.44 622.498 2119.52 627.583C2140.4 646.791 2137.57 662.044 2116.13 680.688C2087.92 705.545 2089.04 706.675 2059.7 671.648C2059.7 694.811 2072.11 706.675 2078.32 720.234C2085.09 734.357 2092.43 747.916 2097.51 762.604C2056.88 733.227 2019.07 702.155 2021.89 644.531C2022.46 632.102 2026.41 615.154 2000.45 620.803C1984.65 624.193 1980.7 603.29 1973.36 591.991C1950.79 556.965 1951.35 556.965 1922.01 585.777C1897.75 609.505 1871.79 630.972 1874.61 670.519C1875.74 685.772 1861.07 697.071 1846.96 698.766C1830.03 701.026 1832.29 682.947 1827.77 672.778C1823.82 663.174 1819.31 653.005 1818.74 643.401C1816.49 587.472 1773.03 562.614 1736.35 533.802C1719.42 520.808 1696.29 530.412 1677.1 522.503C1673.72 533.802 1681.05 537.192 1685 541.711C1695.72 554.705 1694.03 564.309 1673.15 573.913C1635.91 590.861 1602.05 613.459 1571.01 639.447C1551.83 655.83 1543.93 647.356 1536.59 633.797C1512.89 589.731 1489.19 546.231 1464.92 502.165C1461.54 495.951 1460.41 482.392 1448.56 489.171C1440.09 494.256 1447.43 503.295 1450.82 508.944C1477.34 556.965 1504.43 603.855 1530.38 651.875C1536.59 663.739 1546.18 663.739 1556.91 662.044C1563.68 660.914 1569.88 659.785 1576.66 659.22C1588.51 657.525 1603.18 649.616 1610.51 661.479C1616.72 671.648 1603.74 681.817 1598.1 690.857C1580.61 721.928 1564.24 754.13 1542.8 782.942C1517.4 817.404 1522.48 855.82 1522.48 894.237C1522.48 910.055 1522.48 925.873 1505.55 933.218C1466.62 949.601 1459.28 984.063 1460.97 1019.09C1463.23 1061.46 1440.09 1089.71 1418.09 1119.65C1407.93 1133.21 1394.39 1133.77 1378.02 1132.08C1367.3 1130.95 1356.58 1130.95 1345.86 1132.08C1321.59 1133.77 1309.74 1123.04 1302.97 1098.18C1293.38 1060.9 1279.27 1024.74 1261.77 990.277C1250.49 968.244 1247.67 949.601 1261.21 931.523C1275.32 912.88 1275.32 894.236 1265.16 873.898C1248.23 838.872 1240.9 800.456 1236.38 762.039C1233.56 737.182 1222.84 727.578 1196.88 733.792C1141.58 746.786 1086.84 743.961 1032.67 723.623C1018 717.974 1007.84 704.415 1007.27 688.597C1005.58 651.875 1003.32 615.719 1000.5 578.998C999.374 562.614 1003.89 546.796 1014.05 533.802C1033.23 509.509 1053.55 485.217 1069.35 459.229C1087.97 428.722 1112.23 415.164 1147.22 413.469C1175.44 412.339 1203.09 407.819 1231.3 403.865C1244.28 402.17 1252.75 403.865 1256.13 419.118C1261.21 442.846 1305.79 473.353 1326.11 461.489C1363.35 438.891 1397.21 454.71 1432.19 461.489C1455.33 466.009 1463.8 458.099 1463.23 436.067C1463.23 425.333 1453.64 416.858 1442.92 416.858C1390.44 418.553 1390.44 418.553 1382.54 369.968C1374.64 373.923 1374.64 382.397 1371.25 388.611C1366.17 398.215 1366.17 415.164 1353.76 414.599C1342.47 414.034 1343.03 396.52 1337.39 386.916C1331.18 375.618 1331.75 361.494 1320.46 351.325C1314.82 366.578 1316.51 389.176 1301.28 393.131C1284.35 397.65 1279.27 373.923 1267.42 363.754C1263.47 360.364 1260.08 356.974 1257.26 352.455C1244.28 331.552 1231.3 332.682 1213.24 348.5C1191.24 367.143 1165.84 382.397 1142.14 399.91C1121.83 415.164 1102.64 409.514 1085.15 397.085C1075.55 390.306 1077.25 338.896 1085.71 329.292C1093.05 320.818 1103.21 322.513 1112.23 324.208C1130.29 327.597 1137.06 319.123 1135.37 302.74C1132.55 279.012 1144.96 266.018 1165.84 258.109C1174.31 254.719 1182.21 249.07 1191.24 245.68C1217.76 234.946 1302.4 225.342 1331.75 193.14L1263.47 184.101C1256.13 183.536 1251.62 175.062 1255 168.283C1273.63 130.432 1297.33 87.4959 1339.08 79.0217C1364.48 73.9372 1386.49 73.9372 1409.06 87.4959C1422.6 95.9701 1437.27 102.184 1451.95 108.964C1457.59 111.789 1466.05 118.003 1470 112.353C1494.27 80.7166 1527.56 98.7948 1556.34 96.535C1586.25 94.2752 1616.16 99.9247 1634.78 66.593C1640.99 55.2941 1656.79 56.4239 1668.64 56.9889C1701.93 59.2487 1731.84 51.3394 1760.62 34.9561C1776.42 25.9169 1792.22 25.352 1809.71 29.3066C1995.37 76.197 2184.41 94.2752 2374.58 107.269C2382.48 107.834 2390.38 108.964 2398.28 110.659C2413.52 113.483 2445.68 108.964 2411.26 134.386C2407.31 137.211 2406.75 141.731 2408.44 146.815C2415.21 169.978 2406.75 187.491 2383.05 190.316C2361.6 192.576 2368.94 200.485 2374.02 211.219C2383.05 229.297 2391.51 247.94 2396.59 268.278C2365.55 248.505 2317.02 247.375 2322.67 192.576C2323.79 182.407 2317.59 176.757 2306.3 178.452C2280.34 183.536 2254.38 187.491 2228.99 194.27C2215.45 197.66 2205.85 208.959 2204.16 222.518C2202.47 235.511 2217.14 236.641 2226.17 241.161C2249.87 253.59 2277.52 303.87 2273.01 330.987C2271.88 336.071 2269.06 342.851 2265.11 345.111C2235.76 363.754 2240.84 387.481 2252.13 414.034C2255.51 423.073 2261.16 431.547 2254.38 445.106Z" fill="white"/>
<path d="M692.391 51.9051C725.12 57.5545 743.742 79.5874 757.286 108.4C763.493 120.828 761.8 128.738 751.078 137.212C729.07 154.16 707.063 165.459 679.412 149.076C673.769 145.686 664.74 145.686 664.176 138.342C663.611 128.173 674.333 129.302 680.54 126.478C685.619 124.218 691.262 123.088 698.034 120.828C692.391 107.835 682.233 102.75 671.511 101.62C658.533 100.49 660.225 114.049 656.275 121.958C652.325 129.867 653.454 143.426 639.911 140.036C628.06 137.212 614.517 133.257 610.567 120.828C607.181 110.094 619.031 105.575 625.803 99.9254C630.317 96.5357 634.832 93.711 643.296 88.6265C630.317 84.6719 630.317 66.0287 615.645 70.5483C601.538 75.0678 603.795 86.9316 608.31 98.7955C611.695 107.835 602.666 111.789 597.023 116.309C577.273 132.692 557.522 147.946 537.772 164.329C522.535 176.758 527.614 199.921 549.622 217.434C567.115 231.557 568.808 210.654 576.144 203.875C588.559 192.576 593.073 171.673 612.26 169.978C644.989 167.154 677.719 166.024 710.448 171.108C714.963 171.673 719.477 177.888 722.299 182.407C735.278 208.395 748.257 234.947 760.671 260.935C766.879 273.928 763.493 282.402 749.95 286.922C742.049 289.747 734.149 294.266 726.249 295.396C634.267 312.909 577.837 383.527 512.378 440.022C496.577 453.581 496.577 475.613 489.242 493.692C484.727 504.99 476.263 514.03 467.234 500.471C444.097 464.314 412.496 473.919 379.767 480.698C327.286 490.867 327.286 489.737 337.444 540.017C344.78 575.609 345.344 576.738 379.202 563.18C394.439 557.53 401.774 562.615 409.11 574.479C429.99 608.375 445.79 644.532 461.026 681.253C467.798 697.637 476.263 701.591 494.32 701.591C552.443 702.721 610.002 685.208 668.126 698.201C689.005 702.721 702.548 711.76 707.627 732.663C714.963 762.605 731.328 781.248 762.364 789.722C789.451 797.067 814.28 811.755 840.238 821.924C856.603 828.139 861.682 837.178 855.474 854.691C841.931 893.672 830.081 933.218 818.23 973.329C814.28 986.888 806.38 996.492 795.658 1004.4C770.265 1022.48 752.771 1045.64 749.95 1078.41C747.692 1107.79 726.813 1124.17 705.934 1140.55C651.197 1183.49 643.296 1231.51 679.976 1292.52C687.876 1305.52 695.212 1317.95 702.548 1330.37C694.648 1338.85 690.134 1332.63 686.748 1329.24C644.425 1294.22 603.231 1259.19 560.908 1224.73C548.493 1214.56 545.108 1202.13 545.672 1187.44C547.929 1129.25 549.058 1071.06 551.315 1012.31C551.879 993.102 544.543 979.544 532.693 964.29C493.756 916.27 470.055 859.776 445.226 803.846C436.197 784.638 451.997 763.735 459.898 745.092C468.927 724.189 465.541 710.63 445.226 698.201C406.289 673.909 368.481 646.792 330.108 621.934C284.399 592.557 235.869 566.569 209.911 511.77C199.754 526.458 206.525 542.277 195.239 551.881C185.646 550.751 185.082 542.277 182.825 535.497C169.846 497.081 157.431 458.665 143.888 420.814C138.809 406.69 139.938 393.696 151.788 385.222C212.169 342.851 202.575 280.143 202.011 219.129C201.447 201.05 191.854 196.531 176.617 197.661C130.909 200.485 84.636 203.875 38.9274 206.7C25.9484 207.83 12.9694 211.784 1.11905 205.57C-1.13817 200.485 1.11905 197.096 4.50487 195.401C58.1137 162.069 111.723 129.302 165.331 96.5357C178.31 88.6265 192.418 89.1914 206.525 89.1914C280.449 89.1914 354.937 89.1914 435.633 89.1914C422.089 79.0224 413.625 72.2431 400.082 62.0741C462.155 47.9505 515.764 54.7298 569.937 71.6782C565.422 85.8018 550.751 81.8472 545.108 92.5811C570.501 96.5357 591.945 99.3604 593.073 62.639C593.638 45.6907 606.617 38.9114 624.674 37.7815C648.375 38.3464 669.254 51.9051 692.391 51.9051Z" fill="white"/>
<path d="M2137.01 1060.33C2127.98 1023.61 2149.42 995.928 2186.67 974.46C2212.62 959.772 2236.33 941.128 2261.15 923.615C2271.88 916.271 2282.6 908.362 2297.27 912.881C2307.99 916.271 2314.2 908.362 2321.54 902.147C2344.67 882.939 2367.24 889.153 2377.4 918.531C2380.79 928.135 2388.12 931.524 2396.02 933.219C2407.31 935.479 2406.18 925.31 2409.57 919.096C2415.77 906.102 2414.08 880.679 2428.19 882.374C2443.99 884.069 2447.38 908.927 2449.07 924.745C2453.02 961.466 2467.69 993.668 2486.88 1023.61C2495.34 1036.6 2492.52 1047.9 2485.18 1060.33C2469.38 1086.88 2454.71 1114.57 2438.91 1141.12C2413.52 1184.05 2365.55 1186.88 2330.56 1151.29C2317.02 1137.73 2300.66 1127 2289.37 1110.61C2282.6 1100.44 2270.75 1103.83 2260.59 1106.09C2231.25 1111.74 2201.9 1117.96 2171.99 1124.17C2140.39 1130.38 2137.57 1128.13 2137.01 1097.05C2137.01 1087.45 2137.01 1077.84 2137.01 1060.33Z" fill="white"/>
<path d="M692.955 51.9033C674.897 20.2665 674.897 20.8314 711.013 16.3118C751.643 11.7923 792.272 6.14285 834.031 0.493408C834.031 15.182 822.745 10.6624 814.28 18.0067C910.212 12.9222 1002.19 7.83768 1093.61 2.75319C1100.95 2.18824 1109.98 -2.33131 1114.49 5.01296C1119.57 13.4871 1108.85 17.4417 1104.33 23.0912C1071.6 62.0723 1032.1 91.4494 983.571 107.268C946.327 119.132 918.112 141.729 894.976 173.366C876.918 198.224 872.968 196.529 853.782 173.366C834.595 150.204 827.259 127.041 835.724 95.969C845.881 58.6827 800.737 19.7015 762.929 30.4355C739.228 37.7797 716.091 45.124 692.955 51.9033C692.955 51.9033 692.391 51.9033 692.955 51.9033Z" fill="white"/>
<path d="M2198.52 865.423C2155.63 856.948 2107.66 866.552 2076.63 821.357C2055.18 790.285 2028.1 762.603 2006.09 730.401C2043.33 745.654 2084.53 754.693 2104.28 795.934C2118.39 825.311 2122.34 829.266 2153.94 838.87C2170.87 843.39 2186.67 851.299 2198.52 865.423Z" fill="white"/>
<path d="M1525.87 989.145C1525.3 954.684 1567.63 907.793 1596.97 904.404C1608.82 902.709 1606.56 910.618 1604.3 916.833C1589.63 954.684 1574.4 991.97 1559.16 1029.26C1555.77 1037.73 1548.44 1042.25 1543.36 1030.95C1535.46 1015.7 1530.38 999.879 1525.87 989.145Z" fill="white"/>
<path d="M2340.16 322.511C2346.36 323.641 2355.96 319.687 2358.21 329.856C2360.47 340.59 2355.96 353.018 2346.36 356.408C2327.18 362.622 2333.95 372.791 2337.9 384.655C2346.36 408.948 2330 442.845 2305.73 447.929C2295.01 450.189 2278.65 455.838 2273 442.28C2268.49 430.981 2276.96 415.162 2287.68 411.773C2317.58 403.298 2311.38 385.22 2306.3 364.317C2298.4 329.291 2305.17 321.946 2340.16 322.511Z" fill="white"/>
<path d="M2421.42 773.337C2434.96 782.941 2446.81 783.506 2459.22 784.071C2471.64 785.201 2481.8 793.11 2489.13 802.149C2493.65 807.234 2490.83 817.968 2496.47 824.747C2494.78 825.877 2494.21 826.442 2493.65 826.442C2480.1 817.403 2465.43 812.318 2450.2 806.669C2437.22 801.584 2427.06 791.98 2421.42 773.337Z" fill="white"/>
<path d="M2223.35 731.531C2218.83 755.258 2214.88 779.551 2210.37 803.278C2208.67 812.318 2204.16 820.792 2194 819.097C2178.2 816.272 2159.01 819.662 2148.29 802.714C2142.65 793.109 2138.7 782.376 2133.62 772.207C2125.72 755.823 2125.72 744.524 2148.29 745.654C2169.17 746.784 2174.25 726.446 2186.1 715.712C2193.44 708.933 2199.08 698.764 2212.06 704.978C2224.47 710.628 2224.47 720.797 2223.35 731.531Z" fill="white"/>
</svg>
