<?xml version="1.0" encoding="utf-8"?>
<!-- Generator: Adobe Illustrator 26.0.3, SVG Export Plug-In . SVG Version: 6.00 Build 0)  -->
<svg version="1.1" id="Layer_1" xmlns="http://www.w3.org/2000/svg" xmlns:xlink="http://www.w3.org/1999/xlink" x="0px" y="0px"
	 viewBox="0 0 2497 1335" style="enable-background:new 0 0 2497 1335;" xml:space="preserve">
<style type="text/css">
	.st0{fill:#FFFFFF;}
</style>
<path class="st0" d="M2257.3,429.2c1.1,7.2-7.6,11.8-13.1,7c-10.3-9-20.2-17.6-30.5-26.1c-6.2-5.6-13-11.3-19.8-15.8
	c-7.9-4.5-18.1-11.9-25.9-5.1c-9.6,7.9,0,16.9,3.9,24.3c7.3,12.4,15.2,24.9,24.3,36.2c26,31.6,18.1,80.2-18.1,101.7
	c-19.2,11.3-39.5,22.6-62.1,26c-27.1,4.5-24.8,15.3-10.2,32.2c5.1,5.6,8.5,13,13.6,18.1c20.9,19.2,18.1,34.5-3.4,53.1
	c-28.2,24.9-27.1,26-56.4-9c0,23.2,12.4,35,18.6,48.6c4,8.4,8.3,16.6,12.1,25c2.3,4.9-3.6,9.6-7.9,6.3
	c-34.4-26.4-63.1-56.5-60.6-107c0.6-12.4,4.5-29.4-21.4-23.7c-15.8,3.4-19.8-17.5-27.1-28.8c-22.6-35-22-35-51.3-6.2
	c-24.3,23.7-50.2,45.2-47.4,84.7c1.1,15.3-13.5,26.6-27.7,28.2c-16.9,2.3-14.7-15.8-19.2-26c-4-9.6-8.5-19.8-9-29.4
	c-2.2-55.9-45.7-80.8-82.4-109.6c-16.9-13-40.1-3.4-59.2-11.3c-3.4,11.3,4,14.7,7.9,19.2c10.7,13,9,22.6-11.8,32.2
	c-37.2,16.9-71.1,39.5-102.1,65.5c-19.2,16.4-27.1,7.9-34.4-5.7c-23.7-44.1-47.4-87.6-71.7-131.6c-3.4-6.2-4.5-19.8-16.4-13
	c-8.5,5.1-1.1,14.1,2.3,19.8c26.5,48,53.6,94.9,79.6,142.9c6.2,11.9,15.8,11.9,26.5,10.2c6.8-1.1,13-2.3,19.8-2.8
	c11.8-1.7,26.5-9.6,33.8,2.3c6.2,10.2-6.8,20.3-12.4,29.4c-17.5,31.1-33.9,63.3-55.3,92.1c-25.4,34.5-20.3,72.9-20.3,111.3
	c0,15.8,0,31.6-16.9,39c-38.9,16.4-46.3,50.8-44.6,85.9c2.3,42.4-20.9,70.6-42.9,100.6c-10.2,13.6-23.7,14.1-40.1,12.4
	c-10.7-1.1-21.4-1.1-32.2,0c-24.3,1.7-36.1-9-42.9-33.9c-9.6-37.3-23.7-73.4-41.2-107.9c-11.3-22-14.1-40.7-0.6-58.8
	c14.1-18.6,14.1-37.3,4-57.6c-16.9-35-24.3-73.4-28.8-111.9c-2.8-24.9-13.5-34.5-39.5-28.2c-55.3,13-110,10.2-164.2-10.2
	c-14.7-5.6-24.8-19.2-25.4-35c-1.7-36.7-4-72.9-6.8-109.6c-1.1-16.4,3.4-32.2,13.5-45.2c19.2-24.3,39.5-48.6,55.3-74.6
	c18.6-30.5,42.9-44.1,77.9-45.8c28.2-1.1,55.9-5.6,84.1-9.6c13-1.7,21.4,0,24.8,15.3c5.1,23.7,49.7,54.2,70,42.4
	c37.2-22.6,71.1-6.8,106.1,0c23.1,4.5,31.6-3.4,31-25.4c0-10.7-9.6-19.2-20.3-19.2c-52.5,1.7-52.5,1.7-60.4-46.9
	c-7.9,4-7.9,12.4-11.3,18.6c-5.1,9.6-5.1,26.6-17.5,26c-11.3-0.6-10.7-18.1-16.4-27.7c-6.2-11.3-5.6-25.4-16.9-35.6
	c-5.6,15.3-3.9,37.9-19.2,41.8c-16.9,4.5-22-19.2-33.9-29.4c-4-3.4-7.3-6.8-10.2-11.3c-13-20.9-26-19.8-44-4
	c-22,18.6-47.4,33.9-71.1,51.4c-20.3,15.3-39.5,9.6-57-2.8c-9.6-6.8-7.9-58.2,0.6-67.8c7.3-8.5,17.5-6.8,26.5-5.1
	c18.1,3.4,24.8-5.1,23.1-21.5c-0.5-4.9-15.6-17.2-15.1-22.8c0.7-7.8,16.1-11.7,17.8-14.3c1.2-1.7,1.1-4,0.9-6
	c-1-11.3-7.6-10.4-14.1-17.3c-2.8-3-2.9-7.8-1.3-11.6c4.8-10.9,16.1-9.8,24.7-3.5c5.1,3.7,10.2,9.3,13.2,14.9
	c2.3,4.2,2.3,10.5,7.4,12.6c7.2,2.9,16.2-6.6,22.3-9.1c26.5-10.7,111.2-20.3,140.5-52.5l-68.3-9c-7.3-0.6-11.8-9-8.5-15.8
	c18.6-37.9,42.3-80.8,84.1-89.3c25.4-5.1,47.4-5.1,70,8.5c13.5,8.5,28.2,14.7,42.9,21.5c5.6,2.8,14.1,9,18.1,3.4
	c24.3-31.6,57.6-13.6,86.3-15.8c29.9-2.3,59.8,3.4,78.4-29.9c6.2-11.3,22-10.2,33.9-9.6c33.3,2.3,63.2-5.6,92-22
	c15.8-9,31.6-9.6,49.1-5.6c185.7,46.9,374.7,65,564.9,78c7.9,0.6,15.8,1.7,23.7,3.4c15.2,2.8,47.4-1.7,13,23.7
	c-3.9,2.8-4.5,7.3-2.8,12.4c6.8,23.2-1.7,40.7-25.4,43.5c-21.4,2.3-14.1,10.2-9,20.9c5.7,11.4,11.2,23,15.7,35.1
	c2.9,7.8-5,15.3-12.6,12c-28.3-12.3-59-21.6-54.4-65.8c1.1-10.2-5.1-15.8-16.4-14.1c-26,5.1-51.9,9-77.3,15.8
	c-13.5,3.4-23.1,14.7-24.8,28.2c-1.7,13,13,14.1,22,18.6c23.7,12.4,51.4,62.7,46.8,89.8c-1.1,5.1-3.9,11.9-7.9,14.1
	c-29.4,18.6-24.3,42.4-13,68.9C2254,418.9,2256.5,423.7,2257.3,429.2z"/>
<path class="st0" d="M692.4,52.3c3.3,0.4,6.6,0.9,9.9,1.8c5.7,1.7,11.3,4.2,16.4,7.3c0.8,0.5,1.6,1,2.4,1.5
	C729,68,735.8,74.6,741.6,82c6.1,7.9,11,16.6,15.3,25.5c0.1,0.3,0.3,0.6,0.4,0.8c6.2,12.4,4.5,20.3-6.2,28.8
	c-22,16.9-44,28.2-71.7,11.9c-5.6-3.4-14.7-3.4-15.2-10.7c-0.6-10.2,10.2-9,16.4-11.9c5.1-2.3,10.7-3.4,17.5-5.6
	c-5.6-13-15.8-18.1-26.5-19.2c-13-1.1-11.3,12.4-15.2,20.3c-4,7.9-2.8,21.5-16.4,18.1c-11.9-2.8-25.4-6.8-29.3-19.2
	c-3.4-10.7,8.5-15.3,15.2-20.9c4.5-3.4,9-6.2,17.5-11.3c-13-4-13-22.6-27.7-18.1c-14.1,4.5-11.9,16.4-7.3,28.2
	c3.4,9-5.6,13-11.3,17.5c-19.8,16.4-39.5,31.6-59.3,48c-15.2,12.4-10.2,35.6,11.9,53.1c17.5,14.1,19.2-6.8,26.5-13.6
	c12.4-11.3,16.9-32.2,36.1-33.9c32.7-2.8,65.5-4,98.2,1.1c4.5,0.6,9,6.8,11.9,11.3c13,26,26,52.5,38.4,78.5c6.2,13,2.8,21.5-10.7,26
	c-7.9,2.8-15.8,7.3-23.7,8.5c-92,17.5-148.4,88.1-213.9,144.6c-15.8,13.6-15.8,35.6-23.1,53.7c-4.5,11.3-13,20.3-22,6.8
	c-23.1-36.2-54.7-26.6-87.5-19.8c-52.5,10.2-52.5,9-42.3,59.3c7.3,35.6,7.9,36.7,41.8,23.2c15.2-5.6,22.6-0.6,29.9,11.3
	c20.9,33.9,36.7,70.1,51.9,106.8c6.8,16.4,15.2,20.3,33.3,20.3c58.1,1.1,115.7-16.4,173.8-3.4c20.9,4.5,34.4,13.6,39.5,34.5
	c7.3,29.9,23.7,48.6,54.7,57.1c27.1,7.3,51.9,22,77.9,32.2c16.4,6.2,21.4,15.3,15.2,32.8c-13.5,39-25.4,78.5-37.2,118.6
	c-3.9,13.6-11.8,23.2-22.6,31.1c-25.4,18.1-42.9,41.2-45.7,74c-2.3,29.4-23.1,45.8-44,62.1c-54.7,42.9-62.6,91-26,152
	c6,9.9,11.7,19.4,17.3,28.9c4,6.7-4.9,13.5-10.4,8c0,0-0.1-0.1-0.1-0.1c-42.3-35-83.5-70.1-125.8-104.5
	c-12.4-10.2-15.8-22.6-15.2-37.3c2.3-58.2,3.4-116.4,5.6-175.1c0.6-19.2-6.8-32.8-18.6-48c-38.9-48-62.6-104.5-87.5-160.4
	c-9-19.2,6.8-40.1,14.7-58.8c9-20.9,5.6-34.5-14.7-46.9c-38.9-24.3-76.7-51.4-115.1-76.3c-45.7-29.4-94.2-55.4-120.2-110.2
	c-10.2,14.7-3.4,30.5-14.7,40.1c-9.6-1.1-10.2-9.6-12.4-16.4c-13-38.4-25.4-76.8-38.9-114.7c-5.1-14.1-3.9-27.1,7.9-35.6
	c60.4-42.4,50.8-105.1,50.2-166.1c-0.6-18.1-10.2-22.6-25.4-21.5c-45.7,2.8-92,6.2-137.7,9c-13,1.1-26,5.1-37.8-1.1
	c-2.3-5.1,0-8.5,3.4-10.2c53.6-33.3,107.2-66.1,160.8-98.9c13-7.9,27.1-7.3,41.2-7.3h219.2c3.2,0,4.5-4,2-6c-7-5.4-13-10-20.1-15.4
	c-3-2.3-1.9-7,1.8-7.7c55.5-10.9,104.4-5.1,153.5,9.5c4.3,1.3,5.5,6.8,2.2,9.7c-4.3,3.7-10,4.8-14.6,7.7c-2.9,1.8-1.9,6.2,1.4,6.7
	c22.3,3.1,40.1,2.4,41.2-31c0.6-16.9,13.5-23.7,31.6-24.9c2.8-0.2,5.8,0.3,8.6,0.7c2.9,0.4,5.7,1,8.6,1.7c5.7,1.3,11.2,3.1,16.7,4.8
	c5.5,1.7,11,3.4,16.6,4.7c2.8,0.6,5.6,1.2,8.4,1.6C686.5,51.7,689.4,51.9,692.4,52.3z"/>
<path class="st0" d="M2137,1060.3c-9-36.7,12.4-64.4,49.7-85.9c26-14.7,49.7-33.3,74.5-50.8c10.7-7.3,21.5-15.3,36.1-10.7
	c10.7,3.4,16.9-4.5,24.3-10.7c23.1-19.2,45.7-13,55.9,16.4c3.4,9.6,10.7,13,18.6,14.7c11.3,2.3,10.2-7.9,13.6-14.1
	c6.2-13,4.5-38.4,18.6-36.7c15.8,1.7,19.2,26.6,20.9,42.4c3.9,36.7,18.6,68.9,37.8,98.9c8.5,13,5.6,24.3-1.7,36.7
	c-15.8,26.6-30.5,54.2-46.3,80.8c-25.4,42.9-73.4,45.8-108.3,10.2c-13.5-13.6-29.9-24.3-41.2-40.7c-6.8-10.2-18.6-6.8-28.8-4.5
	c-29.3,5.7-58.7,11.9-88.6,18.1c-31.6,6.2-34.4,4-35-27.1C2137,1087.4,2137,1077.8,2137,1060.3z"/>
<path class="st0" d="M694.6,47.8c-9.3-4.7-21.2-18.6-11.1-25.9c2.7-1.9,6.5-2.5,9.6-3.1c5.9-1.1,11.9-1.8,17.8-2.5
	c40.6-4.5,81.3-10.2,123-15.8c0,14.7-11.3,10.2-19.8,17.5c95.9-5.1,187.9-10.2,279.3-15.3c7.3-0.6,16.4-5.1,20.9,2.3
	c5.1,8.5-5.6,12.4-10.2,18.1c-32.7,39-72.2,68.4-120.8,84.2c-37.2,11.9-65.5,34.5-88.6,66.1c-18.1,24.9-22,23.2-41.2,0
	c-19.2-23.2-26.5-46.3-18.1-77.4c9.8-36-30.4-71.9-65-67.1c-10.1,1.4-20.5,5.4-30.2,8.5c-7.3,2.4-14.3,5.2-21.5,7.8
	c-6.4,2.3-13,5.1-19.9,4.2C697.7,49.2,696.2,48.6,694.6,47.8z"/>
<path class="st0" d="M549.5,589.6c4.9,1.2,4.8,8.2-0.1,9.2c-23.8,4.8-47.4,11.9-71-6.8c-17.2-13.6-36.6-24.7-54.7-38
	c-2.5-1.8-1.1-5.8,2-5.6c23.6,1.5,47.3,2.2,65.4,21.8c14.8,16,18.1,17.8,40.3,17.7C537.5,587.7,543.6,588.1,549.5,589.6z"/>
<path class="st0" d="M2144.1,846.5c4.7,3,1.9,10.3-3.6,9.5c-26.5-3.8-53.6-5.2-71.1-33.3c-12.8-20.4-28.8-39.1-42.7-59.7
	c-1.9-2.8,1-6.4,4.2-5.1c23.9,10.3,48.2,19.8,59.8,46.9c9.4,22.1,12.2,25.2,35.2,33.3C2132.3,840.1,2138.5,842.8,2144.1,846.5z"/>
<path class="st0" d="M1525.9,989.1c-0.6-34.5,41.8-81.4,71.1-84.7c11.8-1.7,9.6,6.2,7.3,12.4c-14.7,37.9-29.9,75.1-45.1,112.4
	c-3.4,8.5-10.7,13-15.8,1.7C1535.5,1015.7,1530.4,999.9,1525.9,989.1z"/>
<path class="st0" d="M2340.2,322.5c6.2,1.1,15.8-2.8,18.1,7.3c2.3,10.7-2.2,23.2-11.8,26.6c-19.2,6.2-12.4,16.4-8.5,28.2
	c8.5,24.3-7.9,58.2-32.2,63.3c-10.7,2.3-27.1,7.9-32.7-5.6c-4.5-11.3,4-27.1,14.7-30.5c29.9-8.5,23.7-26.6,18.6-47.5
	C2298.4,329.3,2305.2,321.9,2340.2,322.5z"/>
<path class="st0" d="M2373.8,817c-6.4-8.5,1.6-20.5,11.9-17.6c12.1,3.5,23.7,4.1,35.7,4.6c20.5,1.9,37.3,14.9,49.4,29.9
	c6.9,7.8,3.4,23.7,10.3,34.9c0.9,1.4,0.6,3.3-0.8,4.3c0,0,0,0-0.1,0c-1,0.7-2.4,0.7-3.4,0c-22-14.4-45.7-22.6-70.4-31.7
	C2393.7,836.4,2382.7,828.8,2373.8,817z"/>
<path class="st0" d="M2238.3,844.1c-1.3,0.6-2.6,1.1-4,1.3c-18.8,2.3-7-36-4.4-44.1c3.8-11.7,9.7-24.4,20.7-31.3
	c4.6-2.8,28-14.4,30.7-5.4c1.7,5.7-8.5,14.7-10.7,19.5c-8.1,18-12.2,38.3-25.1,53.7C2243.4,840.3,2241,842.7,2238.3,844.1z"/>
<path class="st0" d="M2229.7,609.7c1.5-10.6,15.7-13.4,20.8-4c6.1,11,13.9,19.6,22,28.5c13.2,15.8,15.8,37,13.8,56.1
	c-0.6,10.4-14.3,19.2-17.3,32c-0.4,1.6-1.9,2.8-3.6,2.5c0,0,0,0-0.1,0c-1.2-0.2-2.2-1.2-2.5-2.4c-5.4-25.7-16.4-48.3-27.3-72.2
	C2230.1,637.5,2227.6,624.3,2229.7,609.7z"/>
<path class="st0" d="M2223.4,731.5c-4.5,23.7-8.5,48-13,71.7c-1.7,9-6.2,17.5-16.4,15.8c-15.8-2.8-35,0.6-45.7-16.4
	c-5.6-9.6-9.6-20.3-14.7-30.5c-7.9-16.4-7.9-27.7,14.7-26.6c20.9,1.1,26-19.2,37.8-29.9c7.3-6.8,13-16.9,26-10.7
	C2224.5,710.6,2224.5,720.8,2223.4,731.5z"/>
<path class="st0" d="M1096.2,207.2c-2.5,0.4-4.9,1.2-7,2.6c-6.9,4.5-9.5,13.3-10.8,21.5c-0.8,5.2-3.4,15.4-0.1,20.1
	c5.8,8.2,18.3-2.4,23.7-7.1c5.5-4.7,5.2-13.3,8.8-19.5c1.2-2,2.7-3.8,3.8-5.8c1.1-2.1,1.6-4.6,0.6-6.7c-1.1-2.3-3.8-3.4-6.2-4.1
	C1104.9,207.1,1100.4,206.5,1096.2,207.2z"/>
</svg>
