<svg width="288" height="468" viewBox="0 0 288 468" fill="none" xmlns="http://www.w3.org/2000/svg">
<path d="M161.926 467.482C166.884 467.482 170.903 463.399 170.903 458.363C170.903 453.326 166.884 449.243 161.926 449.243C156.968 449.243 152.948 453.326 152.948 458.363C152.948 463.399 156.968 467.482 161.926 467.482Z" fill="#C9C4BE"/>
<path d="M251.696 73.5063C245.158 73.5063 239.028 75.2993 233.742 78.4146V73.5063C233.742 53.3915 217.633 37.0268 197.832 37.0268C191.294 37.0268 185.163 38.8198 179.877 41.9351V37.0268C179.877 16.9121 163.768 0.547363 143.968 0.547363C124.167 0.547363 108.058 16.9121 108.058 37.0268V41.9351C102.773 38.8198 96.642 37.0268 90.1038 37.0268C70.3033 37.0268 54.1943 53.3915 54.1943 73.5063V189.399C42.7787 177.549 26.8779 170.177 9.30745 170.177C4.35014 170.177 0.330078 174.261 0.330078 179.297V325.215C0.330078 350.906 12.4109 375.453 32.6486 390.878L47.0115 401.821C61.5773 412.922 72.149 436.702 72.149 458.365C72.149 463.401 76.1691 467.484 81.1264 467.484H121.525C126.482 467.484 130.502 463.401 130.502 458.365C130.502 453.329 126.482 449.245 121.525 449.245H89.619C87.3773 427.602 77.2868 402.093 57.7852 387.23L43.4223 376.287C27.6823 364.29 18.2848 345.197 18.2848 325.215V189.333C38.7478 193.57 54.1943 211.996 54.1943 234.016V288.735C54.1943 293.771 58.2143 297.855 63.1716 297.855C73.062 297.855 82.7908 300.22 91.5428 304.719C96.9759 327.764 117.528 345.567 146.465 370.612C152.379 375.731 158.494 381.025 164.99 386.797C166.682 388.302 168.79 389.054 170.9 389.054C173.01 389.054 175.119 388.302 176.811 386.797C183.306 381.025 189.422 375.731 195.336 370.612C229.274 341.237 251.696 321.831 251.696 292.237C251.696 265.31 232.891 243.136 206.81 243.136C188.977 243.136 177.665 253.479 170.9 263.469C164.135 253.479 152.823 243.136 134.991 243.136C111.535 243.136 93.8707 261.089 90.6415 284.493C84.6805 282.307 78.4718 280.838 72.149 280.122C72.149 274.605 72.149 79.1077 72.149 73.5063C72.149 63.4489 80.2035 55.2666 90.1038 55.2666C100.004 55.2666 108.058 63.4489 108.058 73.5063V197.536C108.058 202.572 112.079 206.656 117.036 206.656C121.993 206.656 126.013 202.572 126.013 197.536V37.0268C126.013 26.9694 134.068 18.7871 143.968 18.7871C153.868 18.7871 161.923 26.9694 161.923 37.0268V197.536C161.923 202.572 165.943 206.656 170.9 206.656C175.857 206.656 179.877 202.572 179.877 197.536V73.5063C179.877 63.4489 187.932 55.2666 197.832 55.2666C207.732 55.2666 215.787 63.4489 215.787 73.5063V197.536C215.787 202.572 219.807 206.656 224.764 206.656C229.722 206.656 233.742 202.572 233.742 197.536V109.986C233.742 99.9284 241.796 91.746 251.696 91.746C261.597 91.746 269.651 99.9284 269.651 109.986V326.5C269.651 346.975 263.928 366.927 253.1 384.201C242.542 401.046 235.339 425.85 233.976 449.245H202.321C197.364 449.245 193.343 453.329 193.343 458.365C193.343 463.401 197.364 467.484 202.321 467.484H242.719C247.676 467.484 251.696 463.401 251.696 458.365V457.17C251.696 434.834 258.192 410.037 268.247 393.997C280.911 373.792 287.606 350.451 287.606 326.5V109.986C287.606 89.871 271.497 73.5063 251.696 73.5063V73.5063ZM134.991 261.376C154.987 261.376 161.962 285.582 162.251 286.622C163.332 290.565 166.868 293.295 170.9 293.295C174.943 293.295 178.488 290.549 179.558 286.588C179.626 286.335 186.598 261.376 206.81 261.376C222.164 261.376 233.742 274.643 233.742 292.237C233.742 313.409 214.904 329.715 183.692 356.729C179.551 360.314 175.311 363.983 170.9 367.853C166.489 363.983 162.249 360.313 158.108 356.729C126.897 329.715 108.058 313.409 108.058 292.237C108.058 274.643 119.637 261.376 134.991 261.376V261.376Z" fill="#C9C4BE"/>
</svg>
