<svg xmlns="http://www.w3.org/2000/svg">
  <symbol viewBox="0 0 342 319" id="donate">
    <title>donate</title>
    <path d="M248.056 213.625C253.064 211.924 257.978 210.223 262.845 208.522C274.137 204.648 285.382 200.632 296.722 196.899C308.817 192.93 320.11 194.631 329.937 202.947C337.733 209.562 341.419 218.397 341.041 228.556C340.521 242.588 333.528 252.605 320.724 258.322C295.115 269.709 269.507 280.907 243.851 292.199C229.109 298.672 214.463 305.334 199.627 311.571C185.925 317.382 171.561 319.225 156.772 317.713C142.787 316.296 129.983 311.618 118.029 304.295C107.729 297.963 97.3813 291.821 86.9866 285.632C83.5848 283.6 79.8049 282.655 76.025 281.804C75.6943 281.71 75.1273 282.041 74.8911 282.324C70.497 287.758 64.8744 291.254 57.9762 292.483C56.3225 292.766 54.6216 292.908 52.9206 292.908C40.4471 292.955 27.9735 292.908 15.5 292.908C6.71179 292.908 0.23877 286.435 0.23877 277.647C0.23877 239.895 0.23877 202.191 0.23877 164.44C0.23877 155.793 6.75903 149.273 15.4055 149.273C27.9735 149.273 40.5888 149.226 53.1569 149.273C62.5593 149.32 70.0245 153.336 75.5998 160.896C76.1195 161.652 76.6865 161.841 77.537 161.841C90.3413 161.841 103.193 161.794 115.997 161.841C124.596 161.888 132.77 163.825 140.33 167.936C148.74 172.519 157.056 177.291 165.419 182.016C168.112 183.528 170.805 185.087 173.546 186.552C174.207 186.883 175.01 187.119 175.766 187.119C188.759 187.166 201.753 187.072 214.699 187.166C226.983 187.261 236.527 192.6 243.378 202.758C245.41 205.735 246.78 209.042 247.678 212.538C247.82 212.869 247.914 213.153 248.056 213.625ZM80.7499 252.132C80.8916 252.18 80.9861 252.227 81.0806 252.274C81.4113 252.369 81.7893 252.416 82.1201 252.51C88.4986 253.928 94.8299 255.676 100.5 259.031C112.028 265.74 123.368 272.733 134.849 279.489C151.906 289.553 169.813 291.254 188.24 283.883C197.311 280.292 206.194 276.087 215.124 272.166C243.095 259.881 271.066 247.549 299.037 235.218C302.439 233.706 305.888 232.241 309.29 230.682C310.896 229.973 311.511 228.65 311.085 226.902C310.707 225.343 309.81 224.728 307.92 224.823C307.305 224.87 306.691 225.059 306.077 225.248C284.107 232.761 262.183 240.32 240.213 247.88C236.338 249.203 232.464 250.479 228.684 252.038C224.243 253.881 219.613 254.967 214.841 254.967C193.579 254.967 172.364 254.967 151.103 254.967C150.016 254.967 148.882 254.873 147.842 254.684C139.999 253.077 135.085 246.226 135.889 238.1C136.597 230.776 143.212 225.059 150.961 225.059C171.939 225.059 192.917 225.059 213.896 225.059C214.368 225.059 214.841 225.059 215.313 225.059C218.337 224.776 219.991 221.468 218.337 218.917C217.439 217.547 216.116 217.074 214.51 217.074C201.091 217.074 187.673 217.074 174.254 217.074C169.482 217.074 164.994 215.988 160.788 213.672C149.543 207.388 138.298 201.057 127.1 194.726C123.793 192.883 120.202 191.844 116.422 191.796C104.894 191.749 93.3652 191.796 81.8366 191.749C81.5531 191.749 81.2223 191.796 80.8444 191.796C80.7499 212.019 80.7499 232.052 80.7499 252.132ZM30.1469 262.905C37.0924 262.905 43.8962 262.905 50.6999 262.905C50.6999 234.981 50.6999 207.105 50.6999 179.228C43.8017 179.228 36.9979 179.228 30.1469 179.228C30.1469 207.199 30.1469 235.029 30.1469 262.905Z"
    />
    <path d="M197.075 137.697C202.509 133.02 207.942 128.437 213.329 123.806C223.44 115.113 233.598 106.466 242.953 96.9693C248.529 91.2995 253.821 85.3935 257.884 78.4953C263.884 68.3841 265.255 57.7533 260.861 46.7444C257.317 37.8145 250.749 32.1447 241.111 30.5855C233.031 29.2625 226.228 31.9084 220.605 37.7672C215.88 42.7755 212.62 48.6343 210.588 55.2018C208.604 61.5331 202.84 65.8327 196.272 65.8327C189.61 65.8327 183.846 61.5331 181.909 55.1073C179.971 48.4926 176.759 42.681 171.892 37.72C159.324 25.0102 141.417 29.7823 133.904 42.4448C132.487 44.8545 131.447 47.5476 130.503 50.1935C128.235 56.761 122.376 60.8716 115.336 60.6354C108.91 60.3992 103.24 55.6743 101.681 49.2013C101.02 46.4609 101.161 43.7678 102.012 41.0746C106.642 26.1914 115.383 14.4738 129.18 6.91409C138.724 1.66953 148.977 -0.314899 159.796 0.582818C174.254 1.76403 185.925 8.42603 195.469 19.1514C195.658 19.3876 195.894 19.6239 196.083 19.8601C196.13 19.9074 196.225 19.9546 196.13 19.9074C198.871 17.3087 201.469 14.5683 204.352 12.2531C216.069 2.61449 229.629 -1.11812 244.56 0.960804C264.688 3.70121 278.72 14.9463 287.414 33.0896C292.422 43.4843 294.029 54.5876 292.989 66.069C292.044 76.6053 288.359 86.244 282.784 95.1739C277.775 103.253 271.586 110.482 264.971 117.239C253.868 128.626 241.772 138.926 229.677 149.273C222.117 155.793 214.51 162.266 206.95 168.787C201.091 173.795 193.106 173.89 187.2 168.881C172.364 156.313 157.481 143.745 142.74 131.035C133.007 122.625 123.699 113.742 115.714 103.584C113.162 100.324 111.698 96.7331 112.076 92.5752C112.595 86.622 115.667 82.2751 121.1 79.9127C126.439 77.5975 131.589 78.4008 136.22 81.9444C137.117 82.6058 137.968 83.4563 138.629 84.354C144.204 91.583 150.583 98.056 157.434 104.057C170.286 115.254 183.279 126.216 196.225 137.272C196.556 137.272 196.792 137.461 197.075 137.697Z"
    /> </symbol>
  <symbol viewBox="0 0 24 24" id="icon-?!">
    <title>?!</title>
    <g id="icon-?!-?!" stroke="none" stroke-width="1" fill-rule="evenodd">
      <path d="M9.34187464,15.8010471 L9.34187464,15.4554974 C9.34187464,13.7905759 10.2528694,12.973822 11.4465867,11.6230366 C13.3314034,9.54973822 14.2423982,7.97905759 14.2423982,5.87434555 C14.2423982,2.35602094 11.6036547,0 7.7397804,0 C2.96491129,0 0.514649507,3.76963351 1.08009453,7.35078534 L5.22669139,7.91623037 C4.66124637,5.78010471 5.63506836,4.17801047 7.4884715,4.17801047 C8.87067045,4.17801047 9.7502516,4.9947644 9.7502516,6.40837696 C9.7502516,7.72774869 8.90208406,8.63874346 7.86543485,9.7382199 C6.01203171,11.7486911 5.06962333,13.2251309 5.06962333,15.5811518 L5.06962333,15.8010471 L9.34187464,15.8010471 Z M7.39423066,23.9685864 C9.31046103,23.9685864 10.5355919,22.5235602 10.5355919,20.7643979 C10.5355919,19.0052356 9.31046103,17.6544503 7.39423066,17.6544503 C5.41517307,17.6544503 4.22145579,19.0052356 4.22145579,20.7643979 C4.22145579,22.5235602 5.41517307,23.9685864 7.39423066,23.9685864 Z M22.127215,15.1727749 L22.6298328,0.502617801 L18.3261678,0.502617801 L18.8287856,15.1727749 L22.127215,15.1727749 Z M20.4937071,24 C22.4099375,24 23.6350684,22.5549738 23.6350684,20.7958115 C23.6350684,19.0052356 22.4099375,17.6544503 20.4937071,17.6544503 C18.5460631,17.6544503 17.2895186,19.0052356 17.2895186,20.7958115 C17.2895186,22.5549738 18.5460631,24 20.4937071,24 Z"
      fill-rule="nonzero" /> </g>
  </symbol>
  <symbol viewBox="0 0 20 20" id="icon-add">
    <title>icons/20x20/white/add</title>
    <desc>Created with Sketch.</desc>
    <!-- Generator: Sketch 63.1 (92452) - https://sketch.com -->
    <g id="icon-add-icons/20x20/white/add" stroke="none" stroke-width="1" fill-rule="evenodd">
      <polygon id="icon-add-add" points="17 9 17 11 11 11 11 17 9 17 9 11 3 11 3 9 9 9 9 3 11 3 11 9" /> </g>
  </symbol>
  <symbol viewBox="0 0 20 11" id="icon-arrow-big">
    <title>icons/arrows/bullet_grey</title>
    <desc>Created with Sketch.</desc>
    <!-- Generator: Sketch 63.1 (92452) - https://sketch.com -->
    <g id="icon-arrow-big-icons/arrows/bullet_grey" stroke="none" stroke-width="1" fill-rule="evenodd">
      <polygon id="icon-arrow-big-arrow_right_grey" points="20 5.26683292 14.343 0 12.929 1.21677948 16.172 4.22639829 0 4.22639829 0 6.18480584 16.172 6.18480584 12.929 9.53045957 14.343 11" /> </g>
  </symbol>
  <symbol viewBox="0 0 24 24" id="icon-arrow-small">
    <title>arrow-small-down</title>
    <g id="icon-arrow-small-arrow-small-down" stroke="none" stroke-width="1" fill-rule="evenodd">
      <polygon id="icon-arrow-small-Rectangle-4" fill-rule="nonzero" transform="translate(12.049747, 10.500000) rotate(45.000000) translate(-12.049747, -10.500000) " points="15.5497475 7 15.5497475 14 8.54974747 14 8.54974747 12 13.5497475 12 13.5497475 7"
      /> </g>
  </symbol>
  <symbol viewBox="0 0 8 13" id="icon-arrow">
    <title>icons/arrow_white</title>
    <desc>Created with Sketch.</desc>
    <!-- Generator: Sketch 63.1 (92452) - https://sketch.com -->
    <g id="icon-arrow-Modules" stroke="none" stroke-width="1" fill-rule="evenodd">
      <g id="icon-arrow-icons" transform="translate(-361.000000, -1175.000000)">
        <g id="icon-arrow-icons/20x20/white/arrow_white" transform="translate(361.000000, 1175.000000)">
          <polygon id="icon-arrow-arrow_white" points="0 1.5 1.5 0 8 6.5 1.5 13 0 11.5 5 6.5" /> </g>
      </g>
    </g>
  </symbol>
  <symbol viewBox="0 0 4 18" id="icon-attention">
    <title>icon-attention</title>
    <desc>Created with Sketch.</desc>
    <style type="text/css">
      .st0 {
        fill-rule: evenodd;
        clip-rule: evenodd;
        fill: #FFFFFF;
      }
    </style>
    <g>
      <rect id="icon-attention-Rectangle_1_" class="st0" width="4" height="11" />
      <rect id="icon-attention-Rectangle_2_" y="14" class="st0" width="4" height="4" /> </g>
  </symbol>
  <symbol viewBox="0 0 24 24" id="icon-chat">
    <title>chat</title>
    <g id="icon-chat-chat" stroke="none" stroke-width="1" fill-rule="evenodd">
      <path d="M16,2 C19.6881703,2 22.7250537,4.85754869 22.982842,8.51689774 L22.9956923,8.75666659 L23,9 L23,11 C23,14.6881703 20.1424513,17.7250537 16.4831023,17.982842 L16.2433334,17.9956923 L16,18 L7.414,18 L2,23.4142136 L2,9 C2,5.31182965 4.85754869,2.27494627 8.51689774,2.01715798 L8.75666659,2.00430768 L9,2 L16,2 Z M9.01839514,3.9998308 L8.81189302,4.00345997 C6.2054942,4.09952215 4.11881458,6.1875683 4.00489904,8.7768673 L4,9 L4,18.584 L6.58578644,16 L15.9816049,16.0001692 L16.188107,15.99654 C18.7945058,15.9004778 20.8813454,13.8124317 20.9952698,11.2231327 L21.0001692,11 L21.0001692,9.01839514 L20.99654,8.81189302 C20.9004778,6.2054942 18.8124317,4.11881458 16.2231327,4.00489904 L16,4 L9.01839514,3.9998308 Z M8.742,8.894 C9.418,8.894 9.912,9.375 9.912,10.025 C9.912,10.675 9.418,11.182 8.742,11.182 C8.04,11.182 7.585,10.675 7.585,10.025 C7.585,9.375 8.04,8.894 8.742,8.894 Z M12.395,8.894 C13.097,8.894 13.539,9.375 13.539,10.025 C13.539,10.675 13.097,11.182 12.395,11.182 C11.693,11.182 11.238,10.675 11.238,10.025 C11.238,9.375 11.693,8.894 12.395,8.894 Z M16.035,8.894 C16.763,8.894 17.218,9.375 17.218,10.025 C17.218,10.675 16.763,11.182 16.035,11.182 C15.372,11.182 14.891,10.675 14.891,10.025 C14.891,9.375 15.372,8.894 16.035,8.894 Z"
      id="icon-chat-Shape" fill-rule="nonzero" /> </g>
  </symbol>
  <symbol viewBox="0 0 13 10" id="icon-check">
    <title>03F0974A-7BD5-491E-B44F-E87B27F00865</title>
    <desc>Created with sketchtool.</desc>
    <!-- Generator: sketchtool 64 (101010) - https://sketch.com -->
    <g id="icon-check-Modules" stroke="none" stroke-width="1" fill-rule="evenodd">
      <g id="icon-check-icons" transform="translate(-512.000000, -372.000000)">
        <g id="icon-check-Stacked-Group" transform="translate(108.000000, 367.000000)">
          <g id="icon-check-icons/20x20/orange/check" transform="translate(400.000000, 0.000000)">
            <polygon id="icon-check-check" points="17 7 9.0011 15 8.9998 14.99875 8.9998 15 4 10 5.9994 8 8.9998 11 15.0006 5" /> </g>
        </g>
      </g>
    </g>
  </symbol>
  <symbol viewBox="0 0 24 24" id="icon-close-small">
    <title>close-mini</title>
    <g id="icon-close-small-close-mini" stroke="none" stroke-width="1" fill-rule="evenodd">
      <polygon transform="translate(12.000000, 12.000000) rotate(45.000000) translate(-12.000000, -12.000000) " points="19 11 19 13 13 13 13 19 11 19 11 13 5 13 5 11 11 11 11 5 13 5 13 11" /> </g>
  </symbol>
  <symbol viewBox="0 0 14 14" id="icon-close">
    <title>194E626F-B821-4558-8431-8BBB2BC4B907</title>
    <desc>Created with sketchtool.</desc>
    <!-- Generator: sketchtool 64 (101010) - https://sketch.com -->
    <g id="icon-close-Modules" stroke="none" stroke-width="1" fill-rule="evenodd">
      <g id="icon-close-icons" transform="translate(-111.000000, -370.000000)">
        <g id="icon-close-Stacked-Group" transform="translate(108.000000, 367.000000)">
          <g id="icon-close-icons/20x20/black/close">
            <path d="M14.9497475,3.63603897 L16.363961,5.05025253 L11.414039,10.000039 L16.363961,14.9497475 L14.9497475,16.363961 L10.000039,11.414039 L5.05025253,16.363961 L3.63603897,14.9497475 L8.58603897,10.000039 L3.63603897,5.05025253 L5.05025253,3.63603897 L10.000039,8.58603897 L14.9497475,3.63603897 Z"
            id="icon-close-Combined-Shape" /> </g>
        </g>
      </g>
    </g>
  </symbol>
  <symbol viewBox="0 0 20 20" id="icon-delete">
    <title>FA4F5B64-592E-45C1-AC85-9AF4E624CDB7</title>
    <desc>Created with sketchtool.</desc>
    <!-- Generator: sketchtool 64 (101010) - https://sketch.com -->
    <g id="icon-delete-Modules" stroke="none" stroke-width="1" fill-rule="evenodd">
      <g id="icon-delete-icons" transform="translate(-348.000000, -367.000000)">
        <g id="icon-delete-Stacked-Group" transform="translate(108.000000, 367.000000)">
          <g id="icon-delete-icons/20x20/grey/delete" transform="translate(240.000000, 0.000000)">
            <path d="M7,16 L9,16 L9,8 L7,8 L7,16 Z M11,16 L13,16 L13,8 L11,8 L11,16 Z M5,18 L15,18 L15,6 L5,6 L5,18 Z M7,4 L13,4 L13,2 L7,2 L7,4 Z M15,4 L15,0 L5,0 L5,4 L-5.32907052e-15,4 L-5.32907052e-15,6 L3,6 L3,20 L17,20 L17,6 L20,6 L20,4 L15,4 Z" id="icon-delete-icons-/-delete"
            /> </g>
        </g>
      </g>
    </g>
  </symbol>
  <symbol viewBox="0 0 24 24" id="icon-dislike">
    <title>dislike</title>
    <g id="icon-dislike-dislike" stroke="none" stroke-width="1" fill-rule="evenodd">
      <path d="M5.72727053,21 L5.72727053,10.4 L2.99993038,10.4 L2.99993038,21 L5.72727053,21 Z M1,23 L1,8.4 L5.98115705,8.4 L7.62623231,2.69281114 C7.90823164,1.13203654 9.30228609,0 10.923961,0 C12.764939,0 14.2726524,1.45117483 14.2726524,3.26065 L14.2726524,8.4 L19.0141391,8.4 C21.5685243,8.4 23.4794157,10.7163127 22.8937533,13.1561673 L22.8852947,13.1889502 L20.9987931,20.0181338 C20.5766337,21.7751155 18.9661177,23 17.1192309,23 L6.36359953,23 L1,23 Z M19.0141391,10.4 L12.272722,10.4 L12.272722,3.26065 C12.272722,2.57322517 11.6771637,2 10.923961,2 C10.2489217,2 9.68718809,2.46363423 9.59001948,3.07357879 L9.56335025,3.19322849 L7.72720091,9.56330242 L7.72720091,21 L17.1192309,21 C18.0555338,21 18.851472,20.394646 19.0626181,19.5182998 L20.9525292,12.6746448 C21.2197899,11.5192465 20.2910563,10.4 19.0141391,10.4 Z"
      fill-rule="nonzero" transform="translate(12.000000, 11.500000) scale(1, -1) translate(-12.000000, -11.500000) " /> </g>
  </symbol>
  <symbol viewBox="0 0 30 40" id="icon-doc">
    <title>icon-doc</title>
    <desc>Created with Sketch.</desc>
    <style type="text/css">
      .st0 {
        fill: #D3D3DA;
      }
      
      .st1 {
        fill-rule: evenodd;
        clip-rule: evenodd;
        fill: #D3D3DA;
      }
    </style>
    <path id="icon-doc-DOC" class="st0" d="M7.1,35c2.1,0,3.4-1.3,3.4-3.7c0-2.2-1.2-3.6-3.4-3.6H4.7V35H7.1z M7,33.7H6V29h1
	c1.3,0,2.1,0.9,2.1,2.4C9.1,32.8,8.3,33.7,7,33.7z M15,35.2c2.2,0,3.7-1.6,3.7-3.8c0-2.2-1.5-3.8-3.7-3.8s-3.7,1.6-3.7,3.8
	C11.3,33.5,12.8,35.2,15,35.2z M15,33.8c-1.3,0-2.2-1-2.2-2.5c0-1.5,0.9-2.5,2.2-2.5c1.3,0,2.2,1,2.2,2.5
	C17.2,32.8,16.3,33.8,15,33.8z M22.9,35.2c1.6,0,2.9-0.9,3.2-2.3l-1.3-0.5c-0.2,0.9-1,1.4-1.9,1.4c-1.2,0-2.1-1-2.1-2.5
	c0-1.5,0.8-2.5,2.1-2.5c0.9,0,1.7,0.6,1.9,1.4l1.3-0.5c-0.4-1.4-1.6-2.3-3.2-2.3c-2.1,0-3.5,1.5-3.5,3.8
	C19.4,33.6,20.8,35.2,22.9,35.2z" />
    <rect id="icon-doc-Rectangle" x="5" y="15" class="st1" width="20" height="2" />
    <rect id="icon-doc-Rectangle_1_" x="5" y="19" class="st1" width="20" height="2" />
    <rect id="icon-doc-Rectangle_2_" x="5" y="23" class="st1" width="12" height="2" />
    <path class="st0" d="M29.4,9.6L29.4,9.6L29.4,9.6L20,0H0v40h30V10.3L29.4,9.6z M21,3.9l5.6,5.7H21V3.9z M2,38V2h17v9.6h9V38H2z" /> </symbol>
  <symbol viewBox="0 0 23 5" id="icon-dots">
    <title>icons/contextmenu/3points</title>
    <desc>Created with Sketch.</desc>
    <!-- Generator: Sketch 63.1 (92452) - https://sketch.com -->
    <g id="icon-dots-icons/contextmenu/3points" stroke="none" stroke-width="1" fill-rule="evenodd">
      <circle id="icon-dots-Oval" cx="20.5" cy="2.5" r="2.5" />
      <circle id="icon-dots-Oval" cx="11.5" cy="2.5" r="2.5" />
      <circle id="icon-dots-Oval" cx="2.5" cy="2.5" r="2.5" /> </g>
  </symbol>
  <symbol viewBox="0 0 10 6" id="icon-down">
    <title>icons/arrows/down_mini_white</title>
    <desc>Created with Sketch.</desc>
    <!-- Generator: Sketch 63.1 (92452) - https://sketch.com -->
    <g id="icon-down-Modules" stroke="none" stroke-width="1" fill-rule="evenodd">
      <g id="icon-down-icons" transform="translate(-381.000000, -1179.000000)">
        <g id="icon-down-icons/arrows/down_mini_white" transform="translate(381.000000, 1177.000000)">
          <path d="M3,0 L3,5 L8,5 L8,6 L2,6 L2,0 L3,0 Z" id="icon-down-Combined-Shape" transform="translate(5.000000, 3.000000) scale(-1, 1) rotate(-45.000000) translate(-5.000000, -3.000000) " /> </g>
      </g>
    </g>
  </symbol>
  <symbol viewBox="0 0 20 20" id="icon-download-white">
    <title>icon-download-white</title>
    <desc>Created with sketchtool.</desc>
    <style type="text/css">
      .st0 {
        fill-rule: evenodd;
        clip-rule: evenodd;
        fill: #FFFFFF;
      }
    </style>
    <g id="icon-download-white-Modules">
      <g id="icon-download-white-icons" transform="translate(-428.000000, -367.000000)">
        <g id="icon-download-white-Stacked-Group" transform="translate(108.000000, 367.000000)">
          <g id="icon-download-white-download" transform="translate(320.000000, 0.000000)">
            <path id="icon-download-white-arrow_x5F_in_x5F_down-_x5B__x23_384_x5D_" class="st0" d="M14.9,7.4l-1.3-1.5L11,8.4V0H9v8.4L6.5,5.9L5.1,7.4l4.9,4.7
					L14.9,7.4z M20,20H0V10h4v2H2v6h16v-6h-2v-2h4V20z" /> </g>
        </g>
      </g>
    </g>
  </symbol>
  <symbol viewBox="0 0 20 20" id="icon-download">
    <title>18EC843E-E386-4D64-B632-3A24375CEA62</title>
    <desc>Created with sketchtool.</desc>
    <!-- Generator: sketchtool 64 (101010) - https://sketch.com -->
    <g id="icon-download-Modules" stroke="none" stroke-width="1" fill-rule="evenodd">
      <g id="icon-download-icons" transform="translate(-428.000000, -367.000000)">
        <g id="icon-download-Stacked-Group" transform="translate(108.000000, 367.000000)">
          <g id="icon-download-download" transform="translate(320.000000, 0.000000)">
            <path d="M14.94,7.392 L13.592,5.938 L11,8.366 L11,0 L9,0 L9,8.366 L6.456,5.938 L5.094,7.392 L10.042,12.063 L14.94,7.392 Z M20,20 L0,20 L0,10 L4,10 L4,12 L2,12 L2,18 L18,18 L18,12 L16,12 L16,10 L20,10 L20,20 Z" id="icon-download-arrow_in_down-[#384]"
            /> </g>
        </g>
      </g>
    </g>
  </symbol>
  <symbol viewBox="0 0 10 10" id="icon-dropdown">
    <title>icons/arrows/dropdown_grey</title>
    <desc>Created with Sketch.</desc>
    <!-- Generator: Sketch 63.1 (92452) - https://sketch.com -->
    <g id="icon-dropdown-icons/arrows/dropdown_grey" stroke="none" stroke-width="1" fill-rule="evenodd">
      <polygon id="icon-dropdown-dropdown" transform="translate(5.000000, 5.000000) rotate(45.000000) translate(-5.000000, -5.000000) " points="8 2 8 8 2 8" /> </g>
  </symbol>
  <symbol viewBox="0 0 20 20" id="icon-edit">
    <title>icon-edit</title>
    <desc>Created with sketchtool.</desc>
    <style type="text/css">
      .st0 {
        fill-rule: evenodd;
        clip-rule: evenodd;
        fill: #232245;
      }
    </style>
    <g id="icon-edit-Modules">
      <g id="icon-edit-icons" transform="translate(-148.000000, -367.000000)">
        <g id="icon-edit-Stacked-Group" transform="translate(108.000000, 367.000000)">
          <g id="icon-edit-icons_x2F_20x20_x2F_black_x2F_edit" transform="translate(40.000000, 0.000000)">
            <path id="icon-edit-edit-_x5B__x23_1482_x5D_" class="st0" d="M0,20h19.7v-2H0V20z M6.9,13.1v-2.6l8.4-7.9l1.8,2l-7.7,8.5H6.9z M20,4.6
					L15.4,0L4.9,9.7v5.4h5.3L20,4.6z" /> </g>
        </g>
      </g>
    </g>
  </symbol>
  <symbol viewBox="0 0 20 20" id="icon-extern">
    <title>icons/20x20/grey/extern_link</title>
    <desc>Created with Sketch.</desc>
    <!-- Generator: Sketch 63.1 (92452) - https://sketch.com -->
    <g id="icon-extern-icons/20x20/grey/extern_link" stroke="none" stroke-width="1" fill-rule="evenodd">
      <path d="M12,0 L12,2 L16.475,2 L9.066,9.165 L10.536,10.457 L18,2.926 L18,8 L20,8 L20,0 L12,0 Z M18,12 L20,12 L20,20 L-1.77635684e-15,20 L-1.77635684e-15,0 L8,0 L8,2 L2,2 L2,18 L18,18 L18,12 Z" id="icon-extern-send-[#1570]" /> </g>
  </symbol>
  <symbol viewBox="0 0 24 24" id="icon-facebook">
    <title>facebook</title>
    <g id="icon-facebook-facebook" stroke="none" stroke-width="1" fill-rule="evenodd">
      <g id="icon-facebook-iconfont/facebook" transform="translate(7.000000, 2.000000)">
        <path d="M6.8212824,20 L6.8212824,11 L9.55369324,11 L10,7 L6.8212824,7 L6.8212824,5.052 C6.8212824,4.022 6.84759306,3 8.28688365,3 L9.74468914,3 L9.74468914,0.14 C9.74468914,0.097 8.49249659,0 7.225687,0 C4.5800039,0 2.92340674,1.657 2.92340674,4.7 L2.92340674,7 L0,7 L0,11 L2.92340674,11 L2.92340674,20 L6.8212824,20 Z"
        id="icon-facebook-facebook-[#176]" /> </g>
    </g>
  </symbol>
  <symbol viewBox="0 0 16 18" id="icon-forward">
    <title>icon-forward</title>
    <desc>Created with sketchtool.</desc>
    <style type="text/css">
      .st0 {
        fill-rule: evenodd;
        clip-rule: evenodd;
        fill: #2D2B62;
      }
    </style>
    <g id="icon-forward-Modules">
      <g id="icon-forward-icons" transform="translate(-710.000000, -368.000000)">
        <g id="icon-forward-Stacked-Group" transform="translate(108.000000, 367.000000)">
          <g id="icon-forward-icons_x2F_reset-copy" transform="translate(600.000000, 0.000000)">
            <path id="icon-forward-reset" class="st0" d="M4,11.9c0.5,3.3,3.7,5.8,7.3,5c2.3-0.5,4.1-2.3,4.6-4.6C16.7,8.4,14,5,10,5v2L5,4l5-3v2
					c5,0,8.9,4.5,7.9,9.6c-0.6,3.1-3.1,5.6-6.3,6.2c-4.7,0.9-8.9-2.3-9.6-6.7C1.9,11.5,2.4,11,3,11h0C3.5,11,3.9,11.4,4,11.9" /> </g>
        </g>
      </g>
    </g>
  </symbol>
  <symbol viewBox="0 0 20 20" id="icon-import">
    <title>icon-import</title>
    <desc>Created with sketchtool.</desc>
    <style type="text/css">
      .st0 {
        fill-rule: evenodd;
        clip-rule: evenodd;
        fill: #BDBCC7;
      }
    </style>
    <g id="icon-import-Modules">
      <g id="icon-import-icons" transform="translate(-428.000000, -367.000000)">
        <g id="icon-import-Stacked-Group" transform="translate(108.000000, 367.000000)">
          <g id="icon-import-download" transform="translate(320.000000, 0.000000)">
            <path id="icon-import-arrow_x5F_in_x5F_down-_x5B__x23_384_x5D_" class="st0" d="M7.4,5.1L5.9,6.4L8.4,9H0v2h8.4l-2.4,2.5l1.5,1.4l4.7-4.9
					L7.4,5.1z M20,0v20H10v-4h2v2h6V2h-6v2h-2V0H20z" /> </g>
        </g>
      </g>
    </g>
  </symbol>
  <symbol viewBox="0 0 24 24" id="icon-like">
    <title>like</title>
    <g id="icon-like-like" stroke="none" stroke-width="1" fill-rule="evenodd">
      <path d="M5.72727053,21 L5.72727053,10.4 L2.99993038,10.4 L2.99993038,21 L5.72727053,21 Z M1,23 L1,8.4 L5.98115705,8.4 L7.62623231,2.69281114 C7.90823164,1.13203654 9.30228609,0 10.923961,0 C12.764939,0 14.2726524,1.45117483 14.2726524,3.26065 L14.2726524,8.4 L19.0141391,8.4 C21.5685243,8.4 23.4794157,10.7163127 22.8937533,13.1561673 L22.8852947,13.1889502 L20.9987931,20.0181338 C20.5766337,21.7751155 18.9661177,23 17.1192309,23 L6.36359953,23 L1,23 Z M19.0141391,10.4 L12.272722,10.4 L12.272722,3.26065 C12.272722,2.57322517 11.6771637,2 10.923961,2 C10.2489217,2 9.68718809,2.46363423 9.59001948,3.07357879 L9.56335025,3.19322849 L7.72720091,9.56330242 L7.72720091,21 L17.1192309,21 C18.0555338,21 18.851472,20.394646 19.0626181,19.5182998 L20.9525292,12.6746448 C21.2197899,11.5192465 20.2910563,10.4 19.0141391,10.4 Z"
      fill-rule="nonzero" /> </g>
  </symbol>
  <symbol viewBox="0 0 20 20" id="icon-link">
    <title>7687101B-4840-43BE-A415-E129D67126BF</title>
    <desc>Created with sketchtool.</desc>
    <!-- Generator: sketchtool 64 (101010) - https://sketch.com -->
    <g id="icon-link-Modules" stroke="none" stroke-width="1" fill-rule="evenodd">
      <g id="icon-link-icons" transform="translate(-308.000000, -367.000000)">
        <g id="icon-link-Stacked-Group" transform="translate(108.000000, 367.000000)">
          <g id="icon-link-icons/20x20/grey/link" transform="translate(200.000000, 0.000000)">
            <path d="M18.1460454,1.85397782 C15.674106,-0.617992605 11.6660402,-0.617992605 9.19410079,1.85397782 L6.49005435,4.55805814 L7.98186928,6.04989176 L10.6859157,3.34581144 C12.3349304,1.69677611 15.0041608,1.69677611 16.6542305,3.34581144 C18.299025,4.99168163 18.299025,7.66833078 16.6542305,9.31420097 L13.950184,12.0182813 L15.441999,13.5101149 L18.1460454,10.8060346 C20.6179849,8.33406417 20.6179849,4.32594824 18.1460454,1.85397782 L18.1460454,1.85397782 Z M9.31408428,16.6533973 C8.51753529,17.4510113 7.45722835,17.88991 6.33045442,17.88991 C5.20368048,17.88991 4.14337354,17.4510113 3.34682455,16.6533973 C1.70097498,15.0085821 1.70097498,12.3308779 3.34682455,10.6860628 L6.05087099,7.98198247 L4.55800103,6.4890938 L1.85395459,9.19317412 C-0.617984863,11.6651445 -0.617984863,15.6732605 1.85395459,18.1462859 C3.09045183,19.3817436 4.70992561,20 6.33045442,20 C7.95098322,20 9.570457,19.3817436 10.8069542,18.1462859 L13.5110007,15.4422056 L12.0181307,13.949317 L9.31408428,16.6533973 Z M12.9085775,5.59969087 L14.4003925,7.09152449 L7.38390563,14.1080899 L5.8920907,12.6162563 L12.9085775,5.59969087 Z"
            id="icon-link-link_round-[#1110]" /> </g>
        </g>
      </g>
    </g>
  </symbol>
  <symbol viewBox="0 0 24 24" id="icon-linkedin">
    <title>linkedin</title>
    <g id="icon-linkedin-linkedin" stroke="none" stroke-width="1" fill-rule="evenodd">
      <path d="M21,21 L17.6,21 L17.6,15.05085 C17.6,13.41885 16.88005,12.5085 15.5889,12.5085 C14.18385,12.5085 13.35,13.4571 13.35,15.05085 L13.35,21 L9.95,21 L9.95,9.95 L13.35,9.95 L13.35,11.1927 C13.35,11.1927 14.41675,9.321 16.82055,9.321 C19.2252,9.321 21,10.7881 21,13.8243 L21,21 L21,21 Z M6.0757,8.18285 C4.92905,8.18285 4,7.24615 4,6.091 C4,4.9367 4.92905,4 6.0757,4 C7.2215,4 8.15055,4.9367 8.15055,6.091 C8.1514,7.24615 7.2215,8.18285 6.0757,8.18285 L6.0757,8.18285 Z M4,21 L8.25,21 L8.25,9.95 L4,9.95 L4,21 Z"
      /> </g>
  </symbol>
  <symbol viewBox="0 0 132 41" id="icon-logo">
    <title>icon-logo</title>
    <path d="M12.3947 14.6725V16.8615H8.04624V26.653H5.05851V16.8911H0.710022V14.702H12.3947V14.6725Z" />
    <path d="M19.4649 14.6726L24.7896 26.6531H21.5652L20.589 24.2866H15.2051L14.3177 26.6531H11.1525L16.0038 14.6726H19.4649ZM19.7015 22.2159L17.7491 17.542L15.9743 22.2159H19.7015Z" />
    <path d="M26.032 14.6726H31.3862C32.5399 14.6726 33.4865 14.998 34.2261 15.6783C34.9656 16.3587 35.3206 17.1574 35.3206 18.1336C35.3206 19.4648 34.6402 20.441 33.2499 21.0622C33.8415 21.3284 34.4331 22.0679 34.9656 23.2808C35.4981 24.4936 36.0305 25.6177 36.5334 26.6827H33.2499C33.0428 26.2981 32.7174 25.529 32.2145 24.4345C31.7412 23.3104 31.3271 22.6004 30.9721 22.3046C30.6171 21.9792 30.2621 21.8313 29.848 21.8313H28.9901V26.7122H26.032V14.6726ZM29.0197 16.8912V19.6127H30.5875C31.0904 19.6127 31.5046 19.4944 31.7708 19.2577C32.0666 19.021 32.2145 18.6957 32.2145 18.2519C32.2145 17.3349 31.6525 16.8912 30.4988 16.8912H29.0197Z"
    />
    <path d="M58.6009 0C46.7387 0 37.0951 9.17027 37.0951 20.5C37.0951 31.8297 46.7091 41 58.6009 41C70.4631 41 80.1067 31.8297 80.1067 20.5C80.1067 9.17027 70.4927 0 58.6009 0ZM52.1226 25.2035C51.6493 25.6768 50.9393 26.0613 49.9631 26.3571C48.9869 26.653 48.0403 26.8009 47.0937 26.8009C44.9934 26.8009 43.2777 26.2388 41.9465 25.0851C40.6154 23.9315 39.935 22.4524 39.935 20.6775C39.935 18.8434 40.6154 17.3644 41.9465 16.2403C43.2777 15.0866 45.023 14.5245 47.1529 14.5245C48.9278 14.5245 50.4956 14.8499 51.8859 15.5007V18.1335C50.3477 17.3939 48.8686 17.039 47.4191 17.039C45.9992 17.039 44.9343 17.3939 44.1651 18.1039C43.396 18.8139 43.0115 19.7309 43.0115 20.8254C43.0115 21.8903 43.396 22.7186 44.1651 23.3694C44.9343 24.0202 45.94 24.3456 47.1825 24.3456C47.8332 24.3456 48.5136 24.1977 49.1644 23.9315V22.5411H47.4191V20.3521H52.1521V25.2035H52.1226ZM63.2748 26.6825H54.4299V14.6724H63.1565V16.8615H57.4177V19.3759H62.8902V21.5945H57.4177V24.4935H63.2748V26.6825ZM72.0901 16.8911V26.6825H69.1024V16.8911H64.7539V14.702H76.4386V16.8911H72.0901Z"
    />
    <path d="M93.6848 14.6727V26.6532H90.697V21.8314H84.7216V26.6828H81.7338V14.6727H84.7216V19.4945H90.697V14.6727H93.6848Z" />
    <path d="M102.589 14.5248C104.63 14.5248 106.287 15.146 107.559 16.3884C108.831 17.6309 109.452 19.0508 109.452 20.7073C109.452 22.3639 108.801 23.8134 107.529 25.0262C106.257 26.2391 104.6 26.8603 102.589 26.8603C100.548 26.8603 98.8912 26.2391 97.6191 25.0262C96.3471 23.8134 95.6964 22.3639 95.6964 20.7073C95.6964 19.0508 96.3176 17.6309 97.5896 16.3884C98.8912 15.146 100.548 14.5248 102.589 14.5248ZM102.589 24.3459C103.713 24.3459 104.63 24.0205 105.34 23.3401C106.02 22.6597 106.375 21.7723 106.375 20.6778C106.375 19.5832 106.02 18.6958 105.34 18.0154C104.66 17.335 103.743 17.0096 102.589 17.0096C101.465 17.0096 100.548 17.335 99.8378 18.0154C99.1574 18.6958 98.8024 19.5832 98.8024 20.6778C98.8024 21.7723 99.1574 22.6597 99.8378 23.3401C100.548 24.0205 101.465 24.3459 102.589 24.3459Z"
    />
    <path d="M111.552 14.6727H116.906C118.119 14.6727 119.095 15.0277 119.805 15.7377C120.515 16.4476 120.87 17.2759 120.87 18.2225C120.87 19.2283 120.515 20.0566 119.805 20.7665C119.095 21.4765 118.148 21.8314 116.906 21.8314H114.54V26.6532H111.552V14.6727ZM114.54 16.8913V19.672H115.93C117.172 19.672 117.794 19.1987 117.794 18.2817C117.794 17.7492 117.616 17.3942 117.291 17.1871C116.965 16.9801 116.403 16.8913 115.604 16.8913H114.54Z"
    />
    <path d="M131.342 24.4938V26.6828H122.497V14.6727H131.224V16.8617H125.485V19.3762H130.958V21.5948H125.485V24.4938H131.342Z" /> </symbol>
  <symbol viewBox="0 0 27 19" id="icon-nav">
    <title>icons/hamburger_active</title>
    <desc>Created with Sketch.</desc>
    <!-- Generator: Sketch 63.1 (92452) - https://sketch.com -->
    <g id="icon-nav-icons/hamburger_active" stroke="none" stroke-width="1" fill-rule="evenodd">
      <rect id="icon-nav-Rectangle" x="0" y="0" width="27" height="3" />
      <rect id="icon-nav-Rectangle" x="0" y="7" width="27" height="3" />
      <rect id="icon-nav-Rectangle" x="0" y="14" width="17" height="3" /> </g>
  </symbol>
  <symbol viewBox="0 0 28 15" id="icon-note">
    <title>icon-note</title>
    <desc>Created with Sketch.</desc>
    <style type="text/css">
      .st0 {
        fill-rule: evenodd;
        clip-rule: evenodd;
        fill: #FF574F;
      }
    </style>
    <g id="icon-note-actionbuttons_x2F_button_x5F_notice">
      <g id="icon-note-button_notice">
        <g id="icon-note-icons_x2F_notiz" transform="translate(13.000000, 17.000000)">
          <path id="icon-note-Combined-Shape" class="st0" d="M-2-4v2h-11v-2H-2z M10-17l5,5L5-2H0v-5L10-17z M10-14L2-6v2h2l8-8L10-14z M-2-8v2h-11
				v-2H-2z M0-12v2h-13v-2H0z" /> </g>
      </g>
    </g>
  </symbol>
  <symbol viewBox="0 0 18 19" id="icon-notification">
    <title>icon-notification</title>
    <desc>Created with sketchtool.</desc>
    <style type="text/css">
      .st0 {
        fill: #65647C;
      }
    </style>
    <path class="st0" d="M18,12l-2-2V7c0-1.9-0.7-3.6-2.1-4.9C12.6,0.7,10.9,0,9,0C7.1,0,5.4,0.7,4.1,2.1S2,5.1,2,7v3l-2,2v3h6v1
	c0,0.8,0.3,1.6,0.9,2.1C7.4,18.7,8.2,19,9,19c0.8,0,1.6-0.3,2.1-0.9S12,16.8,12,16v-1h6V12z M10,16c0,0.3-0.1,0.5-0.3,0.7
	c-0.4,0.4-1,0.4-1.4,0C8.1,16.5,8,16.3,8,16v-1h2V16z M16,13h-4H6H2v-0.2l2-2V7c0-1.3,0.5-2.6,1.5-3.5S7.7,2,9,2
	c1.3,0,2.6,0.5,3.5,1.5C13.5,4.4,14,5.7,14,7v3.8l2,2V13z" /> </symbol>
  <symbol viewBox="0 0 30 40" id="icon-pdf">
    <title>icon-pdf</title>
    <desc>Created with Sketch.</desc>
    <style type="text/css">
      .st0 {
        fill: #D3D3DA;
      }
      
      .st1 {
        fill-rule: evenodd;
        clip-rule: evenodd;
        fill: #D3D3DA;
      }
    </style>
    <g id="icon-pdf-icons_x2F_fileformats_x2F_grey_x2F_pdf">
      <path id="icon-pdf-PDF" class="st0" d="M6,35v-2.4h1.6c1.5,0,2.5-1,2.5-2.4c0-1.4-0.9-2.4-2.4-2.4H4.7V35H6z M7.5,31.3H6V29h1.5
		c0.8,0,1.2,0.5,1.2,1.2C8.7,30.8,8.3,31.3,7.5,31.3z M13.4,35c2.1,0,3.4-1.3,3.4-3.7c0-2.2-1.2-3.6-3.4-3.6h-2.4V35H13.4z
		 M13.3,33.7h-1V29h1c1.3,0,2.1,0.9,2.1,2.4C15.4,32.8,14.7,33.7,13.3,33.7z M19.2,35v-3h2.4v-1.2h-2.4V29h2.9v-1.3h-4.2V35H19.2z" />
      <path id="icon-pdf-Fill-1" class="st1" d="M23.4,18.6c-0.1,0.1-0.4,0.1-0.6,0.1c-0.6,0-1.4-0.2-2.5-0.6c0.4-0.1,0.8-0.1,1.1-0.1
		c0.6,0,0.8-0.1,1.4,0C23.5,18.3,23.5,18.6,23.4,18.6 M12.5,19.5c0.2-0.4,0.4-0.9,0.6-1.4c0.5-1.2,0.9-2.1,1.1-2.9
		c0.7,1,1.4,1.8,2.4,2.5c0.1,0.1,0.2,0.2,0.4,0.2C15.2,18.4,13.8,18.9,12.5,19.5 M13.7,8.5c0.3,0,0.6,0.8,0.7,1.6
		c0.1,0.8-0.1,1.4-0.3,1.8c-0.2-0.6-0.4-1.5-0.5-2.2C13.6,9.8,13.5,8.6,13.7,8.5 M8.1,24.2c0.2-0.5,0.9-1.6,1.9-2.6
		c0.1-0.1,0.2-0.2,0.4-0.4C9.3,23.2,8.6,24,8.1,24.2 M23.7,17.5c-0.4-0.3-1.2-0.4-2.3-0.4c-0.8,0-1.7,0.2-2.7,0.4
		c-0.5-0.2-1-0.5-1.3-0.8c-1-0.8-2-2-2.6-3.3c0-0.1,0-0.2,0.1-0.4c0,0,0.3-3.1,0.1-4.1c0-0.1,0-0.2-0.1-0.3l-0.1-0.1
		c-0.2-0.3-0.5-0.7-1-0.6l-0.3,0h0c-0.5,0-0.9,0.3-1,0.7c-0.2,1.2,0.2,3,1,5.3l-0.1,0.4c-0.4,1.1-0.8,2.2-1.3,3.2l-0.1,0.1
		c-0.4,1-0.9,1.9-1.2,2.6l-0.4,0.3c0,0-0.8,0.5-0.9,0.6c-1.4,1-2.4,2-2.5,2.8c0,0.3,0,0.6,0.3,0.7l0.4,0.2C8,25,8.2,25,8.3,25
		c1.1-0.1,2.2-1.5,3.7-4.5c1.9-0.8,4.1-1.5,6.1-1.9c1.6,0.7,3.5,1.2,4.6,1.1c0.2,0,0.4,0,0.5-0.1c0.2-0.1,0.4-0.2,0.5-0.4
		c0.2-0.3,0.2-0.8,0.1-1.3C23.9,17.8,23.8,17.6,23.7,17.5" />
      <path class="st0" d="M29.4,9.6L29.4,9.6L29.4,9.6L20,0H0v40h30V10.3L29.4,9.6z M21,3.9l5.6,5.7H21V3.9z M2,38V2h17v9.6h9V38H2z" /> </g>
  </symbol>
  <symbol viewBox="0 0 13 20" id="icon-pending">
    <title>icon-pending</title>
    <desc>Created with Sketch.</desc>
    <style type="text/css">
      .st0 {
        fill: #FFD926;
      }
    </style>
    <path class="st0" d="M9.2,9.8l0.8-0.4C11.9,8.5,13,6.7,13,4.7V0H0v4.7c0,2,1.1,3.8,2.9,4.7l0.8,0.4c0.1,0,0.1,0.1,0.1,0.2
	c0,0.1,0,0.2-0.1,0.2l-0.8,0.4C1.1,11.5,0,13.3,0,15.3V20h13v-4.7c0-2-1.1-3.8-2.9-4.7l-0.8-0.4c-0.1,0-0.1-0.1-0.1-0.2
	C9.1,9.9,9.2,9.8,9.2,9.8z M8.3,12l0.8,0.4c1.1,0.6,1.8,1.7,1.8,2.9V18H2v-2.7c0-1.2,0.7-2.3,1.8-2.9L4.7,12c0.8-0.4,1.2-1.1,1.2-2
	c0-0.8-0.5-1.6-1.2-2L3.8,7.6C2.7,7,2,5.9,2,4.7V2h9v2.7c0,1.2-0.7,2.3-1.8,2.9L8.3,8c-0.8,0.4-1.2,1.1-1.2,2
	C7.1,10.8,7.6,11.6,8.3,12z" /> </symbol>
  <symbol viewBox="0 0 18 19" id="icon-phone">
    <title>Path</title>
    <desc>Created with Sketch.</desc>
    <!-- Generator: Sketch 63.1 (92452) - https://sketch.com -->
    <g id="icon-phone-Symbols" stroke="none" stroke-width="1" fill-rule="evenodd">
      <g id="icon-phone-modules/footer/footer_desktop" transform="translate(-120.000000, -231.000000)">
        <path d="M136.93977,244.494453 C136.10576,244.045663 135.262149,243.533275 134.389738,243.176884 C132.704917,242.4893 132.818918,244.522052 131.614103,245.180837 C130.831693,245.610427 129.728879,244.834045 129.04607,244.403255 C127.853255,243.652073 126.796042,242.664496 125.916431,241.519722 C125.467625,240.935336 124.472813,239.836162 124.595214,239.016581 C124.789617,237.715811 126.329236,237.651013 125.888831,236.05985 C125.653628,235.20907 125.232422,234.370289 124.916818,233.548309 C124.493213,232.449134 124.320411,231.743551 123.086795,231.803549 C122.197584,231.847948 121.605976,232.228339 121.058769,232.941123 C119.579151,234.869478 119.802353,237.471017 120.797166,239.585368 C122.204784,242.580498 124.619214,245.401632 127.199247,247.225589 C128.953669,248.46636 131.264899,249.593134 133.388925,249.785129 C134.944145,249.924326 137.119773,249.083146 137.67658,247.394785 C137.636979,247.512382 137.599779,247.62638 137.581779,247.680378 C137.596179,247.638379 137.623779,247.553181 137.67658,247.394785 C137.69818,247.327587 137.71378,247.281988 137.72818,247.238789 C137.71258,247.285588 137.69578,247.337187 137.67778,247.391185 C138.167386,245.90322 138.226187,245.186837 136.93977,244.494453 L136.93977,244.494453 Z"
        id="icon-phone-Path" /> </g>
    </g>
  </symbol>
  <symbol viewBox="0 0 15.5 15.5" id="icon-play">
    <title>icon-play</title>
    <desc>Created with Sketch.</desc>
    <style type="text/css">
      .st0 {
        fill-rule: evenodd;
        clip-rule: evenodd;
        fill: #FF574F;
      }
      
      .st1 {
        fill: #FF574F;
      }
    </style>
    <g id="icon-play-icons-_x2F_-play">
      <polygon id="icon-play-play-_x5B__x23_1008_x5D_" class="st0" points="10.8,7.6 5.8,10.8 5.8,4.8 	" />
      <path class="st1" d="M7.8,0C3.5,0,0,3.5,0,7.8s3.5,7.8,7.8,7.8s7.8-3.5,7.8-7.8S12,0,7.8,0z M7.8,14c-3.4,0-6.2-2.8-6.2-6.2
		s2.8-6.2,6.2-6.2S14,4.3,14,7.8S11.2,14,7.8,14z" /> </g>
  </symbol>
  <symbol viewBox="0 0 20 20" id="icon-plus">
    <title>icons/20x20/white/plus</title>
    <desc>Created with Sketch.</desc>
    <!-- Generator: Sketch 63.1 (92452) - https://sketch.com -->
    <g id="icon-plus-icons/20x20/white/plus" stroke="none" stroke-width="1" fill-rule="evenodd">
      <polygon id="icon-plus-plus-[#1512]" points="20 9 20 11 11 11 11 20 9 20 9 11 0 11 0 9 9 9 9 0 11 0 11 9" /> </g>
  </symbol>
  <symbol viewBox="0 0 30 40" id="icon-ppt">
    <title>icon-ppt</title>
    <desc>Created with Sketch.</desc>
    <style type="text/css">
      .st0 {
        fill: #D3D3DA;
      }
      
      .st1 {
        fill-rule: evenodd;
        clip-rule: evenodd;
        fill: #D3D3DA;
      }
    </style>
    <g id="icon-ppt-icons_x2F_fileformats_x2F_grey_x2F_ppt">
      <path id="icon-ppt-PPT" class="st0" d="M6,35v-2.4h1.6c1.5,0,2.5-1,2.5-2.4c0-1.4-0.9-2.4-2.4-2.4H4.7V35H6z M7.5,31.3H6V29h1.5
		c0.8,0,1.2,0.5,1.2,1.2C8.7,30.8,8.3,31.3,7.5,31.3z M12.4,35v-2.4h1.6c1.5,0,2.5-1,2.5-2.4c0-1.4-0.9-2.4-2.4-2.4h-2.9V35H12.4z
		 M13.8,31.3h-1.5V29h1.5c0.8,0,1.2,0.5,1.2,1.2C15.1,30.8,14.6,31.3,13.8,31.3z M20.3,35v-6h2v-1.3H17V29h2v6H20.3z" />
      <rect id="icon-ppt-Rectangle" x="13" y="12" class="st1" width="2" height="13" />
      <rect id="icon-ppt-Rectangle_1_" x="9" y="7" class="st1" width="2" height="18" />
      <rect id="icon-ppt-Rectangle_2_" x="5" y="15" class="st1" width="2" height="10" />
      <rect id="icon-ppt-Rectangle-Copy" x="17" y="20" class="st1" width="2" height="5" />
      <path class="st0" d="M29.4,9.6L29.4,9.6L29.4,9.6L20,0H0v40h30V10.3L29.4,9.6z M21,3.9l5.6,5.7H21V3.9z M2,38V2h17v9.6h9V38H2z" /> </g>
  </symbol>
  <symbol viewBox="0 0 72 51" id="icon-quote">
    <title>3CC9BE11-01E8-457B-A4B5-110328C67085</title>
    <desc>Created with sketchtool.</desc>
    <!-- Generator: sketchtool 64 (101010) - https://sketch.com -->
    <g id="icon-quote-Modules" stroke="none" stroke-width="1" fill-rule="evenodd">
      <g id="icon-quote-article_elements" transform="translate(-100.000000, -356.000000)" fill-rule="nonzero">
        <g id="icon-quote-blog-/-quote" transform="translate(100.000000, 356.000000)">
          <g id="icon-quote-quote">
            <path d="M8.5026738,51 L25.6684492,26.4683544 C28.2352941,22.5949367 30,18.721519 30,13.8797468 C30,5.97151899 24.5454545,0 15.7219251,0 C7.05882353,0 0.962566845,5.81012658 0.962566845,14.0411392 C0.962566845,20.0126582 4.3315508,25.3386076 10.4278075,26.7911392 L0,45.9968354 L8.5026738,51 Z M50.5026738,51 L67.6684492,26.4683544 C70.2352941,22.5949367 72,18.721519 72,13.8797468 C72,5.97151899 66.5454545,0 57.7219251,0 C49.0588235,0 42.9625668,5.81012658 42.9625668,14.0411392 C42.9625668,20.0126582 46.3315508,25.3386076 52.4278075,26.7911392 L42,45.9968354 L50.5026738,51 Z"
            /> </g>
        </g>
      </g>
    </g>
  </symbol>
  <symbol viewBox="0 0 16 18" id="icon-reset">
    <title>AEE565C5-BC42-4E34-8C67-27123C3D89AE</title>
    <desc>Created with sketchtool.</desc>
    <!-- Generator: sketchtool 64 (101010) - https://sketch.com -->
    <g id="icon-reset-Modules" stroke="none" stroke-width="1" fill-rule="evenodd">
      <g id="icon-reset-icons" transform="translate(-710.000000, -368.000000)">
        <g id="icon-reset-Stacked-Group" transform="translate(108.000000, 367.000000)">
          <g id="icon-reset-icons/reset-copy" transform="translate(600.000000, 0.000000)">
            <path d="M16.002921,11.8589419 C15.5241177,15.1679242 12.3250695,17.6129111 8.74458482,16.8639151 C6.4710222,16.3879176 4.62306246,14.5569274 4.14526299,12.2929396 C3.32918952,8.42196027 6.00727565,4.99997859 10.0223973,4.99997859 L10.0223973,6.99996788 L15.0412993,3.99998394 L10.0223973,1 L10.0223973,2.99998929 C5.00349524,2.99998929 1.16002005,7.4829653 2.15878156,12.6049379 C2.76707249,15.7239212 5.29459156,18.2379077 8.42538265,18.8439045 C13.1702526,19.7618996 17.3700699,16.5159169 17.9904062,12.1259404 C18.0747237,11.5299436 17.5919053,10.9999465 16.9886333,10.9999465 L16.9896371,10.9999465 C16.4907582,10.9999465 16.0741894,11.3669445 16.002921,11.8589419"
            id="icon-reset-reset" /> </g>
        </g>
      </g>
    </g>
  </symbol>
  <symbol viewBox="0 0 24 24" id="icon-save-full">
    <title>bookmark-filled</title>
    <g id="icon-save-full-bookmark-filled" stroke="none" stroke-width="1" fill-rule="evenodd">
      <polygon fill-rule="nonzero" points="19 2 5 2 5 21.0937692 12 15.437 19 21.0937692" /> </g>
  </symbol>
  <symbol viewBox="0 0 14 20" id="icon-save">
    <title>icon-save</title>
    <desc>Created with sketchtool.</desc>
    <style type="text/css">
      .st0 {
        fill: #232245;
      }
    </style>
    <g id="icon-save-Modules">
      <g id="icon-save-icons" transform="translate(-191.000000, -368.000000)">
        <g id="icon-save-Stacked-Group" transform="translate(108.000000, 367.000000)">
          <g id="icon-save-icons_x2F_20x20_x2F_black_x2F_save" transform="translate(80.000000, 0.000000)">
            <g id="icon-save-Path-2">
              <path class="st0" d="M17,20.1l-7-5.7l-7,5.7V1h14V20.1z M10,11.9l5,4V3H5v12.9L10,11.9z" /> </g>
          </g>
        </g>
      </g>
    </g>
  </symbol>
  <symbol viewBox="0 0 20 20" id="icon-search">
    <title>icons/20x20/grey/search</title>
    <desc>Created with Sketch.</desc>
    <!-- Generator: Sketch 63.1 (92452) - https://sketch.com -->
    <g id="icon-search-icons/20x20/grey/search" stroke="none" stroke-width="1" fill-rule="evenodd">
      <path d="M8,14 C4.692,14 2,11.309 2,8 C2,4.692 4.692,2 8,2 C11.308,2 14,4.692 14,8 C14,11.309 11.308,14 8,14 L8,14 Z M8,0 C3.582,0 0,3.582 0,8 C0,12.418 3.582,16 8,16 C12.418,16 16,12.418 16,8 C16,3.582 12.418,0 8,0 L8,0 Z" id="icon-search-search"
      />
      <rect id="icon-search-Rectangle" transform="translate(15.792893, 16.292893) rotate(45.000000) translate(-15.792893, -16.292893) " x="12.2928932" y="15.2928932" width="7" height="2" /> </g>
  </symbol>
  <symbol viewBox="0 0 20 20" id="icon-share">
    <title>B047DB71-73E6-42DB-A79C-16B572B48860</title>
    <desc>Created with sketchtool.</desc>
    <!-- Generator: sketchtool 64 (101010) - https://sketch.com -->
    <g id="icon-share-Modules" stroke="none" stroke-width="1" fill-rule="evenodd">
      <g id="icon-share-icons" transform="translate(-388.000000, -367.000000)">
        <g id="icon-share-Stacked-Group" transform="translate(108.000000, 367.000000)">
          <g id="icon-share-icons/20x20/grey/share" transform="translate(280.000000, 0.000000)">
            <path d="M16,11.875 C14.897,11.875 14,10.978 14,9.875 C14,8.772 14.897,7.875 16,7.875 C17.103,7.875 18,8.772 18,9.875 C18,10.978 17.103,11.875 16,11.875 M4,18 C2.897,18 2,17.103 2,16 C2,14.897 2.897,14 4,14 C6.643,14 6.644,18 4,18 M4,6 C2.897,6 2,5.103 2,4 C2,2.897 2.897,2 4,2 C6.643,2 6.644,6 4,6 M16,5.875 C14.779,5.875 13.7,6.434 12.966,7.296 L7.959,4.405 C8.212,1.919 6.269,0 4,0 C1.791,0 0,1.791 0,4 C0,6.209 1.791,8 4,8 C5.347,8 6.532,7.329 7.257,6.309 L12.079,9.093 C11.971,9.637 11.974,10.161 12.088,10.704 L7.141,13.551 C6.409,12.613 5.281,12 4,12 C1.791,12 0,13.791 0,16 C0,18.209 1.791,20 4,20 C6.362,20 8.324,17.928 7.939,15.399 L12.995,12.49 C13.728,13.332 14.796,13.875 16,13.875 C18.209,13.875 20,12.084 20,9.875 C20,7.666 18.209,5.875 16,5.875"
            id="icon-share-share-" transform="translate(10.000000, 10.000000) scale(-1, 1) translate(-10.000000, -10.000000) " /> </g>
        </g>
      </g>
    </g>
  </symbol>
  <symbol viewBox="0 0 303.31 303.31" id="icon-twitter">
    <title>icon-twitter</title>
    <style type="text/css">
      .st0 {
        fill-rule: evenodd;
        clip-rule: evenodd;
        fill: #FF564E;
      }
    </style>
    <path class="st0" d="M300.07,61.26c-11.15,4.87-23,8.07-35.12,9.48c12.76-7.53,22.32-19.36,26.89-33.32
	C279.83,44.44,266.7,49.39,253,52.05c-23.17-24.25-61.91-25.42-86.55-2.61c-15.88,14.71-22.63,36.63-17.7,57.55
	c-49.18-2.44-95-25.3-126.07-62.92c-16.23,27.52-7.93,62.71,18.95,80.39c-9.73-0.28-19.26-2.86-27.77-7.53v0.76
	c0.02,28.66,20.54,53.35,49.08,59.03c-9,2.42-18.46,2.77-27.61,1.03c8.01,24.54,30.98,41.35,57.14,41.83
	c-21.66,16.76-48.42,25.86-75.97,25.83c-4.86-0.01-9.72-0.29-14.56-0.87c27.98,17.67,60.52,27.05,93.77,27.01
	c112.51,0.04,174.04-91.73,174.04-171.31c0-2.61,0-5.21-0.18-7.79C281.53,83.93,291.86,73.36,300.07,61.26z" /> </symbol>
  <symbol viewBox="0 0 24 24" id="icon-xing">
    <title>xing</title>
    <g id="icon-xing-xing" stroke="none" stroke-width="1" fill-rule="evenodd">
      <path d="M21.4816541,-2.13162821e-14 C21.6898658,-2.13162821e-14 21.8366394,0.0695263837 21.9220184,0.20883445 C22.0259939,0.357546023 22.0259939,0.528638795 21.9220184,0.72313396 L21.9220184,0.72313396 L14.4245724,13.711122 L14.4245724,13.7246528 L19.1953228,22.2766107 C19.2992983,22.4617449 19.3038171,22.6333483 19.209444,22.7914208 C19.1147668,22.9304736 18.9631703,23 18.755002,23 L18.755002,23 L15.3613947,23 C14.963872,23 14.6514241,22.7914208 14.4243117,22.3742625 L14.4243117,22.3742625 L9.61076318,13.7246528 C9.78121695,13.4285487 12.2946606,9.06183227 17.1510072,0.625780003 C17.3873745,0.208579151 17.6905241,-2.13162821e-14 18.0596306,-2.13162821e-14 L18.0596306,-2.13162821e-14 Z M7.21146229,4.53338402 C7.58986706,4.53338402 7.90231495,4.74200572 8.14854527,5.15916403 L8.14854527,5.15916403 L10.4771533,9.13578383 C10.3822153,9.30321732 9.16592358,11.4166662 6.82775664,15.4768964 C6.5721846,15.9036709 6.26425549,16.1166753 5.9047514,16.1166753 L5.9047514,16.1166753 L2.51088337,16.1166753 C2.31223064,16.1166753 2.16519634,16.0380858 2.07077981,15.8800132 C1.97640673,15.7229619 1.97640673,15.5562943 2.07077981,15.3797552 L2.07077981,15.3797552 L5.66330057,9.14986782 C5.67259884,9.14986782 5.67259884,9.14565539 5.66330057,9.13578383 L5.66330057,9.13578383 L3.37727345,5.25626268 C3.26369553,5.05261931 3.25891605,4.88101594 3.36315224,4.74196317 C3.44848776,4.60291041 3.59951944,4.53338402 3.81759426,4.53338402 L3.81759426,4.53338402 Z"
      fill-rule="nonzero" /> </g>
  </symbol>
  <symbol viewBox="0 0 30 40" id="icon-xls">
    <title>icon-xls</title>
    <desc>Created with Sketch.</desc>
    <style type="text/css">
      .st0 {
        fill: #D3D3DA;
      }
      
      .st1 {
        fill-rule: evenodd;
        clip-rule: evenodd;
        fill: #D3D3DA;
      }
    </style>
    <g id="icon-xls-icons_x2F_fileformats_x2F_grey_x2F_xls">
      <path id="icon-xls-XLS" class="st0" d="M5.9,35l1.5-2.5L8.9,35h1.7l-2.2-3.7l2.2-3.6H8.9l-1.5,2.5L6,27.7H4.3l2.2,3.6L4.2,35H5.9z M15.9,35
		v-1.3h-3v-6h-1.3V35H15.9z M19.2,35.1c1.6,0,2.6-0.9,2.6-2.2c0-1-0.5-1.7-1.8-2.1l-1-0.2c-0.6-0.1-1-0.4-1-0.9
		c0-0.5,0.4-0.9,1.1-0.9c0.7,0,1.2,0.4,1.2,1l1.3-0.3c-0.2-1.2-1.2-1.9-2.5-1.9c-1.4,0-2.5,0.9-2.5,2.2c0,1,0.6,1.7,2,2.1l1,0.2
		c0.5,0.1,0.8,0.4,0.8,0.8c0,0.6-0.5,0.9-1.2,0.9c-0.8,0-1.4-0.5-1.4-1.1l-1.3,0.2C16.6,34.2,17.6,35.1,19.2,35.1z" />
      <rect id="icon-xls-Rectangle" x="5" y="15" class="st1" width="20" height="2" />
      <rect id="icon-xls-Rectangle_1_" x="5" y="15" class="st1" width="2" height="10" />
      <rect id="icon-xls-Rectangle_2_" x="14" y="15" class="st1" width="2" height="10" />
      <rect id="icon-xls-Rectangle_3_" x="23" y="15" class="st1" width="2" height="10" />
      <rect id="icon-xls-Rectangle_4_" x="5" y="19" class="st1" width="20" height="2" />
      <rect id="icon-xls-Rectangle_5_" x="5" y="23" class="st1" width="20" height="2" />
      <path class="st0" d="M29.4,9.6L29.4,9.6L29.4,9.6L20,0H0v40h30V10.3L29.4,9.6z M21,3.9l5.6,5.7H21V3.9z M2,38V2h17v9.6h9V38H2z" /> </g>
  </symbol>
  <symbol viewBox="0 0 310 244" id="join">
    <title>join</title>
    <path d="M232.001 91.8026V213.51H201.112V91.8026H108.445V213.51H77.5557V91.8026C65.2673 91.8026 53.4821 96.6111 44.7929 105.17C36.1036 113.729 31.2221 125.338 31.2221 137.443V167.869C31.2221 179.974 36.1036 191.583 44.7929 200.142C53.4821 208.701 65.2673 213.51 77.5557 213.51H232.001C244.29 213.51 256.075 208.701 264.764 200.142C273.453 191.583 278.335 179.974 278.335 167.869V137.443C278.335 125.338 273.453 113.729 264.764 105.17C256.075 96.6111 244.29 91.8026 232.001 91.8026ZM111.07 61.3759H198.486C195.274 52.4887 189.349 44.7983 181.523 39.3603C173.698 33.9222 164.355 31.0028 154.778 31.0028C145.201 31.0028 135.859 33.9222 128.033 39.3603C120.208 44.7983 114.282 52.4887 111.07 61.3759ZM79.1001 61.3759C82.6753 44.2054 92.1584 28.7771 105.947 17.6979C119.736 6.61869 136.984 0.567871 154.778 0.567871C172.573 0.567871 189.821 6.61869 203.61 17.6979C217.398 28.7771 226.881 44.2054 230.457 61.3759H232.001C252.482 61.3759 272.124 69.39 286.606 83.6553C301.088 97.9206 309.224 117.269 309.224 137.443V167.869C309.224 188.044 301.088 207.392 286.606 221.657C272.124 235.922 252.482 243.936 232.001 243.936H77.5557C57.075 243.936 37.4331 235.922 22.951 221.657C8.46894 207.392 0.333008 188.044 0.333008 167.869V137.443C0.333008 117.269 8.46894 97.9206 22.951 83.6553C37.4331 69.39 57.075 61.3759 77.5557 61.3759H79.1001Z"
    /> </symbol>
  <symbol viewBox="0 0 2497 1335" id="map">
    <title>map</title>
    <path d="M2254.38 445.106C2240.28 432.677 2227.3 421.378 2213.75 410.079C2207.55 404.43 2200.78 398.78 2194 394.261C2186.1 389.741 2175.95 382.397 2168.05 389.176C2158.45 397.085 2168.05 406.125 2172 413.469C2179.33 425.898 2187.23 438.326 2196.26 449.625C2222.22 481.262 2214.32 529.847 2178.2 551.315C2159.02 562.614 2138.7 573.913 2116.13 577.303C2089.04 581.822 2091.3 592.556 2105.97 609.504C2111.05 615.154 2114.44 622.498 2119.52 627.583C2140.4 646.791 2137.57 662.044 2116.13 680.688C2087.92 705.545 2089.04 706.675 2059.7 671.648C2059.7 694.811 2072.11 706.675 2078.32 720.234C2085.09 734.357 2092.43 747.916 2097.51 762.604C2056.88 733.227 2019.07 702.155 2021.89 644.531C2022.46 632.102 2026.41 615.154 2000.45 620.803C1984.65 624.193 1980.7 603.29 1973.36 591.991C1950.79 556.965 1951.35 556.965 1922.01 585.777C1897.75 609.505 1871.79 630.972 1874.61 670.519C1875.74 685.772 1861.07 697.071 1846.96 698.766C1830.03 701.026 1832.29 682.947 1827.77 672.778C1823.82 663.174 1819.31 653.005 1818.74 643.401C1816.49 587.472 1773.03 562.614 1736.35 533.802C1719.42 520.808 1696.29 530.412 1677.1 522.503C1673.72 533.802 1681.05 537.192 1685 541.711C1695.72 554.705 1694.03 564.309 1673.15 573.913C1635.91 590.861 1602.05 613.459 1571.01 639.447C1551.83 655.83 1543.93 647.356 1536.59 633.797C1512.89 589.731 1489.19 546.231 1464.92 502.165C1461.54 495.951 1460.41 482.392 1448.56 489.171C1440.09 494.256 1447.43 503.295 1450.82 508.944C1477.34 556.965 1504.43 603.855 1530.38 651.875C1536.59 663.739 1546.18 663.739 1556.91 662.044C1563.68 660.914 1569.88 659.785 1576.66 659.22C1588.51 657.525 1603.18 649.616 1610.51 661.479C1616.72 671.648 1603.74 681.817 1598.1 690.857C1580.61 721.928 1564.24 754.13 1542.8 782.942C1517.4 817.404 1522.48 855.82 1522.48 894.237C1522.48 910.055 1522.48 925.873 1505.55 933.218C1466.62 949.601 1459.28 984.063 1460.97 1019.09C1463.23 1061.46 1440.09 1089.71 1418.09 1119.65C1407.93 1133.21 1394.39 1133.77 1378.02 1132.08C1367.3 1130.95 1356.58 1130.95 1345.86 1132.08C1321.59 1133.77 1309.74 1123.04 1302.97 1098.18C1293.38 1060.9 1279.27 1024.74 1261.77 990.277C1250.49 968.244 1247.67 949.601 1261.21 931.523C1275.32 912.88 1275.32 894.236 1265.16 873.898C1248.23 838.872 1240.9 800.456 1236.38 762.039C1233.56 737.182 1222.84 727.578 1196.88 733.792C1141.58 746.786 1086.84 743.961 1032.67 723.623C1018 717.974 1007.84 704.415 1007.27 688.597C1005.58 651.875 1003.32 615.719 1000.5 578.998C999.374 562.614 1003.89 546.796 1014.05 533.802C1033.23 509.509 1053.55 485.217 1069.35 459.229C1087.97 428.722 1112.23 415.164 1147.22 413.469C1175.44 412.339 1203.09 407.819 1231.3 403.865C1244.28 402.17 1252.75 403.865 1256.13 419.118C1261.21 442.846 1305.79 473.353 1326.11 461.489C1363.35 438.891 1397.21 454.71 1432.19 461.489C1455.33 466.009 1463.8 458.099 1463.23 436.067C1463.23 425.333 1453.64 416.858 1442.92 416.858C1390.44 418.553 1390.44 418.553 1382.54 369.968C1374.64 373.923 1374.64 382.397 1371.25 388.611C1366.17 398.215 1366.17 415.164 1353.76 414.599C1342.47 414.034 1343.03 396.52 1337.39 386.916C1331.18 375.618 1331.75 361.494 1320.46 351.325C1314.82 366.578 1316.51 389.176 1301.28 393.131C1284.35 397.65 1279.27 373.923 1267.42 363.754C1263.47 360.364 1260.08 356.974 1257.26 352.455C1244.28 331.552 1231.3 332.682 1213.24 348.5C1191.24 367.143 1165.84 382.397 1142.14 399.91C1121.83 415.164 1102.64 409.514 1085.15 397.085C1075.55 390.306 1077.25 338.896 1085.71 329.292C1093.05 320.818 1103.21 322.513 1112.23 324.208C1130.29 327.597 1137.06 319.123 1135.37 302.74C1132.55 279.012 1144.96 266.018 1165.84 258.109C1174.31 254.719 1182.21 249.07 1191.24 245.68C1217.76 234.946 1302.4 225.342 1331.75 193.14L1263.47 184.101C1256.13 183.536 1251.62 175.062 1255 168.283C1273.63 130.432 1297.33 87.4959 1339.08 79.0217C1364.48 73.9372 1386.49 73.9372 1409.06 87.4959C1422.6 95.9701 1437.27 102.184 1451.95 108.964C1457.59 111.789 1466.05 118.003 1470 112.353C1494.27 80.7166 1527.56 98.7948 1556.34 96.535C1586.25 94.2752 1616.16 99.9247 1634.78 66.593C1640.99 55.2941 1656.79 56.4239 1668.64 56.9889C1701.93 59.2487 1731.84 51.3394 1760.62 34.9561C1776.42 25.9169 1792.22 25.352 1809.71 29.3066C1995.37 76.197 2184.41 94.2752 2374.58 107.269C2382.48 107.834 2390.38 108.964 2398.28 110.659C2413.52 113.483 2445.68 108.964 2411.26 134.386C2407.31 137.211 2406.75 141.731 2408.44 146.815C2415.21 169.978 2406.75 187.491 2383.05 190.316C2361.6 192.576 2368.94 200.485 2374.02 211.219C2383.05 229.297 2391.51 247.94 2396.59 268.278C2365.55 248.505 2317.02 247.375 2322.67 192.576C2323.79 182.407 2317.59 176.757 2306.3 178.452C2280.34 183.536 2254.38 187.491 2228.99 194.27C2215.45 197.66 2205.85 208.959 2204.16 222.518C2202.47 235.511 2217.14 236.641 2226.17 241.161C2249.87 253.59 2277.52 303.87 2273.01 330.987C2271.88 336.071 2269.06 342.851 2265.11 345.111C2235.76 363.754 2240.84 387.481 2252.13 414.034C2255.51 423.073 2261.16 431.547 2254.38 445.106Z"
    />
    <path d="M692.391 51.9051C725.12 57.5545 743.742 79.5874 757.286 108.4C763.493 120.828 761.8 128.738 751.078 137.212C729.07 154.16 707.063 165.459 679.412 149.076C673.769 145.686 664.74 145.686 664.176 138.342C663.611 128.173 674.333 129.302 680.54 126.478C685.619 124.218 691.262 123.088 698.034 120.828C692.391 107.835 682.233 102.75 671.511 101.62C658.533 100.49 660.225 114.049 656.275 121.958C652.325 129.867 653.454 143.426 639.911 140.036C628.06 137.212 614.517 133.257 610.567 120.828C607.181 110.094 619.031 105.575 625.803 99.9254C630.317 96.5357 634.832 93.711 643.296 88.6265C630.317 84.6719 630.317 66.0287 615.645 70.5483C601.538 75.0678 603.795 86.9316 608.31 98.7955C611.695 107.835 602.666 111.789 597.023 116.309C577.273 132.692 557.522 147.946 537.772 164.329C522.535 176.758 527.614 199.921 549.622 217.434C567.115 231.557 568.808 210.654 576.144 203.875C588.559 192.576 593.073 171.673 612.26 169.978C644.989 167.154 677.719 166.024 710.448 171.108C714.963 171.673 719.477 177.888 722.299 182.407C735.278 208.395 748.257 234.947 760.671 260.935C766.879 273.928 763.493 282.402 749.95 286.922C742.049 289.747 734.149 294.266 726.249 295.396C634.267 312.909 577.837 383.527 512.378 440.022C496.577 453.581 496.577 475.613 489.242 493.692C484.727 504.99 476.263 514.03 467.234 500.471C444.097 464.314 412.496 473.919 379.767 480.698C327.286 490.867 327.286 489.737 337.444 540.017C344.78 575.609 345.344 576.738 379.202 563.18C394.439 557.53 401.774 562.615 409.11 574.479C429.99 608.375 445.79 644.532 461.026 681.253C467.798 697.637 476.263 701.591 494.32 701.591C552.443 702.721 610.002 685.208 668.126 698.201C689.005 702.721 702.548 711.76 707.627 732.663C714.963 762.605 731.328 781.248 762.364 789.722C789.451 797.067 814.28 811.755 840.238 821.924C856.603 828.139 861.682 837.178 855.474 854.691C841.931 893.672 830.081 933.218 818.23 973.329C814.28 986.888 806.38 996.492 795.658 1004.4C770.265 1022.48 752.771 1045.64 749.95 1078.41C747.692 1107.79 726.813 1124.17 705.934 1140.55C651.197 1183.49 643.296 1231.51 679.976 1292.52C687.876 1305.52 695.212 1317.95 702.548 1330.37C694.648 1338.85 690.134 1332.63 686.748 1329.24C644.425 1294.22 603.231 1259.19 560.908 1224.73C548.493 1214.56 545.108 1202.13 545.672 1187.44C547.929 1129.25 549.058 1071.06 551.315 1012.31C551.879 993.102 544.543 979.544 532.693 964.29C493.756 916.27 470.055 859.776 445.226 803.846C436.197 784.638 451.997 763.735 459.898 745.092C468.927 724.189 465.541 710.63 445.226 698.201C406.289 673.909 368.481 646.792 330.108 621.934C284.399 592.557 235.869 566.569 209.911 511.77C199.754 526.458 206.525 542.277 195.239 551.881C185.646 550.751 185.082 542.277 182.825 535.497C169.846 497.081 157.431 458.665 143.888 420.814C138.809 406.69 139.938 393.696 151.788 385.222C212.169 342.851 202.575 280.143 202.011 219.129C201.447 201.05 191.854 196.531 176.617 197.661C130.909 200.485 84.636 203.875 38.9274 206.7C25.9484 207.83 12.9694 211.784 1.11905 205.57C-1.13817 200.485 1.11905 197.096 4.50487 195.401C58.1137 162.069 111.723 129.302 165.331 96.5357C178.31 88.6265 192.418 89.1914 206.525 89.1914C280.449 89.1914 354.937 89.1914 435.633 89.1914C422.089 79.0224 413.625 72.2431 400.082 62.0741C462.155 47.9505 515.764 54.7298 569.937 71.6782C565.422 85.8018 550.751 81.8472 545.108 92.5811C570.501 96.5357 591.945 99.3604 593.073 62.639C593.638 45.6907 606.617 38.9114 624.674 37.7815C648.375 38.3464 669.254 51.9051 692.391 51.9051Z"
    />
    <path d="M2137.01 1060.33C2127.98 1023.61 2149.42 995.928 2186.67 974.46C2212.62 959.772 2236.33 941.128 2261.15 923.615C2271.88 916.271 2282.6 908.362 2297.27 912.881C2307.99 916.271 2314.2 908.362 2321.54 902.147C2344.67 882.939 2367.24 889.153 2377.4 918.531C2380.79 928.135 2388.12 931.524 2396.02 933.219C2407.31 935.479 2406.18 925.31 2409.57 919.096C2415.77 906.102 2414.08 880.679 2428.19 882.374C2443.99 884.069 2447.38 908.927 2449.07 924.745C2453.02 961.466 2467.69 993.668 2486.88 1023.61C2495.34 1036.6 2492.52 1047.9 2485.18 1060.33C2469.38 1086.88 2454.71 1114.57 2438.91 1141.12C2413.52 1184.05 2365.55 1186.88 2330.56 1151.29C2317.02 1137.73 2300.66 1127 2289.37 1110.61C2282.6 1100.44 2270.75 1103.83 2260.59 1106.09C2231.25 1111.74 2201.9 1117.96 2171.99 1124.17C2140.39 1130.38 2137.57 1128.13 2137.01 1097.05C2137.01 1087.45 2137.01 1077.84 2137.01 1060.33Z"
    />
    <path d="M692.955 51.9033C674.897 20.2665 674.897 20.8314 711.013 16.3118C751.643 11.7923 792.272 6.14285 834.031 0.493408C834.031 15.182 822.745 10.6624 814.28 18.0067C910.212 12.9222 1002.19 7.83768 1093.61 2.75319C1100.95 2.18824 1109.98 -2.33131 1114.49 5.01296C1119.57 13.4871 1108.85 17.4417 1104.33 23.0912C1071.6 62.0723 1032.1 91.4494 983.571 107.268C946.327 119.132 918.112 141.729 894.976 173.366C876.918 198.224 872.968 196.529 853.782 173.366C834.595 150.204 827.259 127.041 835.724 95.969C845.881 58.6827 800.737 19.7015 762.929 30.4355C739.228 37.7797 716.091 45.124 692.955 51.9033C692.955 51.9033 692.391 51.9033 692.955 51.9033Z"
    />
    <path d="M2198.52 865.423C2155.63 856.948 2107.66 866.552 2076.63 821.357C2055.18 790.285 2028.1 762.603 2006.09 730.401C2043.33 745.654 2084.53 754.693 2104.28 795.934C2118.39 825.311 2122.34 829.266 2153.94 838.87C2170.87 843.39 2186.67 851.299 2198.52 865.423Z"
    />
    <path d="M1525.87 989.145C1525.3 954.684 1567.63 907.793 1596.97 904.404C1608.82 902.709 1606.56 910.618 1604.3 916.833C1589.63 954.684 1574.4 991.97 1559.16 1029.26C1555.77 1037.73 1548.44 1042.25 1543.36 1030.95C1535.46 1015.7 1530.38 999.879 1525.87 989.145Z"
    />
    <path d="M2340.16 322.511C2346.36 323.641 2355.96 319.687 2358.21 329.856C2360.47 340.59 2355.96 353.018 2346.36 356.408C2327.18 362.622 2333.95 372.791 2337.9 384.655C2346.36 408.948 2330 442.845 2305.73 447.929C2295.01 450.189 2278.65 455.838 2273 442.28C2268.49 430.981 2276.96 415.162 2287.68 411.773C2317.58 403.298 2311.38 385.22 2306.3 364.317C2298.4 329.291 2305.17 321.946 2340.16 322.511Z"
    />
    <path d="M2421.42 773.337C2434.96 782.941 2446.81 783.506 2459.22 784.071C2471.64 785.201 2481.8 793.11 2489.13 802.149C2493.65 807.234 2490.83 817.968 2496.47 824.747C2494.78 825.877 2494.21 826.442 2493.65 826.442C2480.1 817.403 2465.43 812.318 2450.2 806.669C2437.22 801.584 2427.06 791.98 2421.42 773.337Z"
    />
    <path d="M2223.35 731.531C2218.83 755.258 2214.88 779.551 2210.37 803.278C2208.67 812.318 2204.16 820.792 2194 819.097C2178.2 816.272 2159.01 819.662 2148.29 802.714C2142.65 793.109 2138.7 782.376 2133.62 772.207C2125.72 755.823 2125.72 744.524 2148.29 745.654C2169.17 746.784 2174.25 726.446 2186.1 715.712C2193.44 708.933 2199.08 698.764 2212.06 704.978C2224.47 710.628 2224.47 720.797 2223.35 731.531Z"
    /> </symbol>
  <symbol viewBox="0 0 288 468" id="together">
    <title>together</title>
    <path d="M161.926 467.482C166.884 467.482 170.903 463.399 170.903 458.363C170.903 453.326 166.884 449.243 161.926 449.243C156.968 449.243 152.948 453.326 152.948 458.363C152.948 463.399 156.968 467.482 161.926 467.482Z" />
    <path d="M251.696 73.5063C245.158 73.5063 239.028 75.2993 233.742 78.4146V73.5063C233.742 53.3915 217.633 37.0268 197.832 37.0268C191.294 37.0268 185.163 38.8198 179.877 41.9351V37.0268C179.877 16.9121 163.768 0.547363 143.968 0.547363C124.167 0.547363 108.058 16.9121 108.058 37.0268V41.9351C102.773 38.8198 96.642 37.0268 90.1038 37.0268C70.3033 37.0268 54.1943 53.3915 54.1943 73.5063V189.399C42.7787 177.549 26.8779 170.177 9.30745 170.177C4.35014 170.177 0.330078 174.261 0.330078 179.297V325.215C0.330078 350.906 12.4109 375.453 32.6486 390.878L47.0115 401.821C61.5773 412.922 72.149 436.702 72.149 458.365C72.149 463.401 76.1691 467.484 81.1264 467.484H121.525C126.482 467.484 130.502 463.401 130.502 458.365C130.502 453.329 126.482 449.245 121.525 449.245H89.619C87.3773 427.602 77.2868 402.093 57.7852 387.23L43.4223 376.287C27.6823 364.29 18.2848 345.197 18.2848 325.215V189.333C38.7478 193.57 54.1943 211.996 54.1943 234.016V288.735C54.1943 293.771 58.2143 297.855 63.1716 297.855C73.062 297.855 82.7908 300.22 91.5428 304.719C96.9759 327.764 117.528 345.567 146.465 370.612C152.379 375.731 158.494 381.025 164.99 386.797C166.682 388.302 168.79 389.054 170.9 389.054C173.01 389.054 175.119 388.302 176.811 386.797C183.306 381.025 189.422 375.731 195.336 370.612C229.274 341.237 251.696 321.831 251.696 292.237C251.696 265.31 232.891 243.136 206.81 243.136C188.977 243.136 177.665 253.479 170.9 263.469C164.135 253.479 152.823 243.136 134.991 243.136C111.535 243.136 93.8707 261.089 90.6415 284.493C84.6805 282.307 78.4718 280.838 72.149 280.122C72.149 274.605 72.149 79.1077 72.149 73.5063C72.149 63.4489 80.2035 55.2666 90.1038 55.2666C100.004 55.2666 108.058 63.4489 108.058 73.5063V197.536C108.058 202.572 112.079 206.656 117.036 206.656C121.993 206.656 126.013 202.572 126.013 197.536V37.0268C126.013 26.9694 134.068 18.7871 143.968 18.7871C153.868 18.7871 161.923 26.9694 161.923 37.0268V197.536C161.923 202.572 165.943 206.656 170.9 206.656C175.857 206.656 179.877 202.572 179.877 197.536V73.5063C179.877 63.4489 187.932 55.2666 197.832 55.2666C207.732 55.2666 215.787 63.4489 215.787 73.5063V197.536C215.787 202.572 219.807 206.656 224.764 206.656C229.722 206.656 233.742 202.572 233.742 197.536V109.986C233.742 99.9284 241.796 91.746 251.696 91.746C261.597 91.746 269.651 99.9284 269.651 109.986V326.5C269.651 346.975 263.928 366.927 253.1 384.201C242.542 401.046 235.339 425.85 233.976 449.245H202.321C197.364 449.245 193.343 453.329 193.343 458.365C193.343 463.401 197.364 467.484 202.321 467.484H242.719C247.676 467.484 251.696 463.401 251.696 458.365V457.17C251.696 434.834 258.192 410.037 268.247 393.997C280.911 373.792 287.606 350.451 287.606 326.5V109.986C287.606 89.871 271.497 73.5063 251.696 73.5063V73.5063ZM134.991 261.376C154.987 261.376 161.962 285.582 162.251 286.622C163.332 290.565 166.868 293.295 170.9 293.295C174.943 293.295 178.488 290.549 179.558 286.588C179.626 286.335 186.598 261.376 206.81 261.376C222.164 261.376 233.742 274.643 233.742 292.237C233.742 313.409 214.904 329.715 183.692 356.729C179.551 360.314 175.311 363.983 170.9 367.853C166.489 363.983 162.249 360.313 158.108 356.729C126.897 329.715 108.058 313.409 108.058 292.237C108.058 274.643 119.637 261.376 134.991 261.376V261.376Z"
    /> </symbol>
  <symbol viewBox="0 0 454 462" id="work">
    <title>work</title>
    <path d="M446.051 76.6259C443.523 70.1168 438.042 65.3949 431.39 63.9946C424.591 62.5592 417.488 64.7514 412.391 69.8495L364.86 117.38L341.651 94.1708L392.203 43.6185C397.466 38.3558 399.724 31.0268 398.249 24.0128C396.805 17.1554 391.934 11.5057 385.22 8.8986C341.102 -8.23953 290.975 2.31027 257.514 35.7703C239.896 53.3881 228.393 75.6333 224.238 100.115C223.35 104.279 222.49 108.701 221.58 113.378C216.265 140.698 209.651 174.699 190.256 194.091L16.61 367.738C-4.83158 389.18 -4.83158 424.07 16.61 445.512C27.3317 456.233 41.4146 461.593 55.4975 461.593C69.5795 461.593 83.6633 456.233 94.384 445.512L268.03 271.866C287.424 252.472 321.424 245.858 348.744 240.542C353.422 239.633 357.843 238.772 362.008 237.884C386.489 233.729 408.734 222.226 426.352 204.608C431.55 199.41 433.055 192.353 430.902 186.08C454.494 154.829 460.366 113.483 446.051 76.6259V76.6259ZM425.118 82.5753C425.91 81.7834 426.845 81.4288 427.683 81.607C428.402 81.7582 428.937 82.2747 429.274 83.1413C440.78 112.766 436.803 145.836 419.132 171.652L377.586 130.107L425.118 82.5753ZM413.625 191.883C398.623 206.884 379.673 216.665 358.826 220.169C358.694 220.191 358.565 220.216 358.434 220.244C354.377 221.111 349.971 221.968 345.306 222.876C315.581 228.659 278.585 235.856 255.301 259.139L81.6573 432.785C67.2343 447.21 43.7634 447.209 29.3376 432.784C14.9136 418.36 14.9136 394.89 29.3376 380.465L202.984 206.819C226.268 183.536 233.464 146.541 239.247 116.815C240.155 112.149 241.012 107.743 241.88 103.687C241.908 103.556 241.933 103.427 241.955 103.294C245.457 82.4484 255.238 63.4987 270.242 48.4961C289.617 29.1199 315.568 18.7924 342.001 18.7924C354.337 18.7924 366.782 21.0431 378.705 25.6741C379.789 26.0952 380.439 26.7828 380.636 27.7178C380.858 28.7734 380.435 29.9298 379.476 30.8882L322.56 87.8038C319.046 91.318 319.046 97.0164 322.56 100.531L413.674 191.645C413.706 191.677 413.734 191.706 413.759 191.734C413.724 191.78 413.679 191.828 413.625 191.883V191.883Z"
    />
    <path d="M309.829 113.262C308.14 111.575 305.852 110.626 303.465 110.626C301.079 110.626 298.789 111.575 297.102 113.262L271.649 138.716C268.135 142.23 268.135 147.928 271.649 151.443L307.585 187.38C309.272 189.067 311.562 190.016 313.948 190.016C316.335 190.016 318.624 189.067 320.312 187.38L345.765 161.927C349.279 158.412 349.279 152.714 345.765 149.199L309.829 113.262ZM313.947 168.288L290.738 145.079L303.465 132.352L326.674 155.561L313.947 168.288Z"
    />
    <path d="M61.8572 400.259C58.3421 396.744 52.6465 396.749 49.1323 400.262C45.6181 403.776 45.6199 409.476 49.1341 412.991C50.8917 414.748 53.1946 415.627 55.4975 415.627C57.8004 415.627 60.1033 414.748 61.8608 412.991C65.375 409.477 65.375 403.779 61.8608 400.264L61.8572 400.259Z"
    />
    <path d="M222.782 226.62L77.7714 371.63C74.2572 375.144 74.2572 380.842 77.7714 384.357C79.5289 386.114 81.8318 386.993 84.1347 386.993C86.4377 386.993 88.7406 386.114 90.4981 384.357L235.509 239.346C239.023 235.832 239.023 230.134 235.509 226.619C231.994 223.105 226.297 223.105 222.782 226.62Z"
    /> </symbol>
</svg>